<svg width="18" height="19" viewBox="0 0 18 19" fill="none" xmlns="http://www.w3.org/2000/svg">
<path d="M13.9215 5V12.3125C13.9215 12.4244 13.8771 12.5317 13.798 12.6108C13.7188 12.6899 13.6115 12.7344 13.4997 12.7344C13.3878 12.7344 13.2805 12.6899 13.2013 12.6108C13.1222 12.5317 13.0778 12.4244 13.0778 12.3125V6.01953L4.79498 14.2953C4.71666 14.3736 4.61043 14.4176 4.49966 14.4176C4.3889 14.4176 4.28267 14.3736 4.20435 14.2953C4.12603 14.217 4.08203 14.1108 4.08203 14C4.08203 13.8892 4.12603 13.783 4.20435 13.7047L12.4801 5.42188H6.18716C6.07528 5.42188 5.96797 5.37743 5.88885 5.29831C5.80974 5.21919 5.76529 5.11189 5.76529 5C5.76529 4.88811 5.80974 4.78081 5.88885 4.70169C5.96797 4.62257 6.07528 4.57813 6.18716 4.57812H13.4997C13.6115 4.57813 13.7188 4.62257 13.798 4.70169C13.8771 4.78081 13.9215 4.88811 13.9215 5Z" fill="white"/>
</svg>
