<svg width="195" height="52" viewBox="0 0 195 52" fill="none" xmlns="http://www.w3.org/2000/svg">
<g opacity="0.3">
<path d="M75.3811 30.0936C75.3811 32.3744 74.8459 34.05 73.7753 35.1206C72.7048 36.1911 71.0524 36.7264 68.8182 36.7264C66.6073 36.7264 64.2568 36.61 61.7666 36.3773V31.6646C63.5819 31.7809 65.4437 31.8391 67.3521 31.8391C67.8873 31.8391 68.3062 31.6878 68.6088 31.3853C68.9346 31.0595 69.0975 30.6289 69.0975 30.0936V16.8282H64.5593V11.9409H75.3811V30.0936Z" fill="white"/>
<path d="M91.0889 36.3773H78.5216V31.49H81.6634V16.8282H78.5216V11.9409H91.0889V16.8282H87.9471V31.49H91.0889V36.3773Z" fill="white"/>
<path d="M115.173 35.8536C109.728 36.4355 104.724 36.7264 100.163 36.7264C97.8818 36.7264 96.2061 36.1911 95.1356 35.1206C94.0651 34.05 93.5298 32.3744 93.5298 30.0936V18.9227C93.5298 16.4791 94.0767 14.7104 95.1705 13.6166C96.2876 12.4995 98.068 11.9409 100.512 11.9409H113.079V16.8282H101.908C100.512 16.8282 99.8134 17.5264 99.8134 18.9227V30.0936C99.8134 30.6289 99.9647 31.0595 100.267 31.3853C100.593 31.6878 101.024 31.8391 101.559 31.8391C104.235 31.8391 106.679 31.7809 108.89 31.6646V26.6027H104.352V22.4136H115.173V35.8536Z" fill="white"/>
<path d="M139.617 35.8536C134.171 36.4355 129.167 36.7264 124.606 36.7264C122.325 36.7264 120.649 36.1911 119.579 35.1206C118.508 34.05 117.973 32.3744 117.973 30.0936V18.9227C117.973 16.4791 118.52 14.7104 119.614 13.6166C120.731 12.4995 122.511 11.9409 124.955 11.9409H137.522V16.8282H126.351C124.955 16.8282 124.257 17.5264 124.257 18.9227V30.0936C124.257 30.6289 124.408 31.0595 124.71 31.3853C125.036 31.6878 125.467 31.8391 126.002 31.8391C128.678 31.8391 131.122 31.7809 133.333 31.6646V26.6027H128.795V22.4136H139.617V35.8536Z" fill="white"/>
<path d="M149.398 31.49H162.14V36.3773H143.114V11.9409H149.398V31.49Z" fill="white"/>
<path d="M183.966 36.3773H164.592V11.9409H183.966V16.8282H170.875V21.5409H181.173V26.4282H170.875V31.49H183.966V36.3773Z" fill="white"/>
<g clip-path="url(#clip0_400_2784)">
<path fill-rule="evenodd" clip-rule="evenodd" d="M2.98223 9.25298C3.69087 9.25606 4.36958 9.53894 4.87068 10.04C5.37177 10.5411 5.65468 11.2199 5.65776 11.9285C5.67653 12.6233 5.96577 13.2834 6.46384 13.7682C6.96191 14.253 7.62949 14.5242 8.32455 14.5242C9.0196 14.5242 9.68719 14.253 10.1853 13.7682C10.6833 13.2834 10.9726 12.6233 10.9913 11.9285V3.59838C10.9944 2.88973 11.2772 2.21098 11.7783 1.70988C12.2794 1.20879 12.9582 0.925924 13.6669 0.922852C14.3728 0.929504 15.0476 1.21407 15.5452 1.71489C16.0427 2.21571 16.3228 2.89243 16.3248 3.59838V21.0876C16.3152 21.4439 16.3771 21.7984 16.5068 22.1304C16.6365 22.4624 16.8314 22.765 17.08 23.0204C17.3286 23.2758 17.6257 23.4788 17.9541 23.6174C18.2824 23.756 18.6352 23.8274 18.9916 23.8274C19.348 23.8274 19.7008 23.756 20.0291 23.6174C20.3575 23.4788 20.6548 23.2758 20.9033 23.0204C21.1519 22.765 21.3468 22.4624 21.4765 22.1304C21.6061 21.7984 21.668 21.4439 21.6584 21.0876V11.9285C21.6615 11.2199 21.9444 10.5411 22.4455 10.04C22.9466 9.53894 23.6253 9.25606 24.3339 9.25298C25.0399 9.25964 25.7147 9.54423 26.2122 10.045C26.7098 10.5459 26.99 11.2226 26.992 11.9285V21.0876C26.992 21.7946 27.2729 22.4727 27.7728 22.9726C28.2727 23.4725 28.9507 23.7534 29.6577 23.7534C30.3647 23.7534 31.0428 23.4725 31.5428 22.9726C32.0427 22.4727 32.3236 21.7946 32.3236 21.0876V3.59838C32.3266 2.8894 32.6098 2.21034 33.1113 1.70919C33.6128 1.20804 34.292 0.925412 35.001 0.922852C35.7077 0.926455 36.3842 1.2101 36.882 1.71164C37.3799 2.21318 37.6587 2.89168 37.6571 3.59838V11.9285C37.6759 12.6233 37.9651 13.2834 38.4631 13.7682C38.9612 14.253 39.6288 14.5242 40.3238 14.5242C41.0189 14.5242 41.6866 14.253 42.1846 13.7682C42.6827 13.2834 42.9719 12.6233 42.9906 11.9285C42.9937 11.2195 43.2769 10.5405 43.7784 10.0393C44.2799 9.5382 44.9592 9.25554 45.6682 9.25298C46.3749 9.25659 47.0513 9.54026 47.5492 10.0418C48.0471 10.5433 48.3258 11.2218 48.3242 11.9285V37.9366C48.3217 38.6403 48.041 39.3144 47.5434 39.8119C47.0459 40.3095 46.3718 40.5901 45.6682 40.5927C44.9622 40.5912 44.2853 40.3116 43.7841 39.8144C43.2829 39.3172 42.9978 38.6425 42.9906 37.9366C43.0003 37.5804 42.9385 37.2258 42.8088 36.8938C42.6791 36.5619 42.4842 36.2592 42.2356 36.0039C41.987 35.7485 41.6897 35.5455 41.3614 35.4069C41.033 35.2683 40.6802 35.1968 40.3238 35.1968C39.9674 35.1968 39.6147 35.2683 39.2864 35.4069C38.9581 35.5455 38.6608 35.7485 38.4122 36.0039C38.1636 36.2592 37.9687 36.5619 37.839 36.8938C37.7093 37.2258 37.6475 37.5804 37.6571 37.9366V46.257C37.6577 46.6061 37.5893 46.9518 37.456 47.2744C37.3227 47.597 37.1271 47.8901 36.8804 48.137C36.6337 48.3839 36.3407 48.5797 36.0182 48.7132C35.6957 48.8467 35.35 48.9153 35.001 48.9151C34.2941 48.9161 33.6156 48.637 33.1142 48.1388C32.6127 47.6406 32.3291 46.9639 32.3255 46.257V28.7445C32.3255 28.0375 32.0447 27.3594 31.5448 26.8595C31.0448 26.3595 30.3667 26.0787 29.6597 26.0787C28.9527 26.0787 28.2746 26.3595 27.7747 26.8595C27.2748 27.3594 26.9939 28.0375 26.9939 28.7445V37.923C26.9878 38.6259 26.7057 39.2982 26.2085 39.7951C25.7113 40.2919 25.0388 40.5735 24.3359 40.5791C23.6303 40.5771 22.9538 40.2972 22.4531 39.8001C21.9523 39.3029 21.6676 38.6286 21.6604 37.923V28.7445C21.6416 28.0497 21.3524 27.3896 20.8543 26.9048C20.3562 26.42 19.6887 26.1488 18.9936 26.1488C18.2986 26.1488 17.6309 26.42 17.1328 26.9048C16.6347 27.3896 16.3456 28.0497 16.3268 28.7445V46.257C16.3248 46.9614 16.044 47.6363 15.546 48.1343C15.048 48.6323 14.3731 48.913 13.6688 48.9151C12.9617 48.9166 12.283 48.6376 11.7814 48.1393C11.2798 47.641 10.9963 46.9641 10.9932 46.257V37.9288C11.0029 37.5726 10.941 37.218 10.8113 36.886C10.6816 36.5541 10.4868 36.2515 10.2382 35.9961C9.98959 35.7407 9.69232 35.5377 9.36398 35.3991C9.03564 35.2605 8.68284 35.1891 8.32645 35.1891C7.97005 35.1891 7.61726 35.2605 7.28892 35.3991C6.96058 35.5377 6.6634 35.7407 6.41481 35.9961C6.16623 36.2515 5.97129 36.5541 5.8416 36.886C5.71191 37.218 5.65003 37.5726 5.65966 37.9288C5.6525 38.6344 5.36774 39.3088 4.86697 39.8059C4.36621 40.303 3.68974 40.5829 2.98413 40.5849C2.28124 40.5793 1.60875 40.2978 1.11154 39.8009C0.614326 39.3041 0.332275 38.6317 0.326172 37.9288V11.9285C0.328188 11.2226 0.608297 10.5459 1.10584 10.045C1.60338 9.54423 2.27821 9.25964 2.98413 9.25298H2.98223ZM10.9913 19.599C11.001 19.2428 10.9391 18.8882 10.8094 18.5562C10.6797 18.2242 10.4848 17.9216 10.2362 17.6663C9.9876 17.4109 9.69042 17.2079 9.36208 17.0693C9.03374 16.9307 8.68094 16.8592 8.32455 16.8592C7.96815 16.8592 7.61536 16.9307 7.28702 17.0693C6.95868 17.2079 6.6614 17.4109 6.41282 17.6663C6.16423 17.9216 5.96939 18.2242 5.8397 18.5562C5.71001 18.8882 5.64813 19.2428 5.65776 19.599V30.2661C5.67653 30.9609 5.96577 31.621 6.46384 32.1058C6.96191 32.5906 7.62949 32.8618 8.32455 32.8618C9.0196 32.8618 9.68719 32.5906 10.1853 32.1058C10.6833 31.621 10.9726 30.9609 10.9913 30.2661V19.599ZM37.6494 30.2661V19.599C37.6397 19.2428 37.7015 18.8882 37.8312 18.5562C37.9609 18.2242 38.1558 17.9216 38.4044 17.6663C38.653 17.4109 38.9503 17.2079 39.2786 17.0693C39.607 16.9307 39.9598 16.8592 40.3161 16.8592C40.6725 16.8592 41.0252 16.9307 41.3536 17.0693C41.6819 17.2079 41.9792 17.4109 42.2278 17.6663C42.4764 17.9216 42.6713 18.2242 42.801 18.5562C42.9307 18.8882 42.9925 19.2428 42.9828 19.599V30.2661C42.9641 30.9609 42.6749 31.621 42.1769 32.1058C41.6788 32.5906 41.0112 32.8618 40.3161 32.8618C39.6211 32.8618 38.9534 32.5906 38.4553 32.1058C37.9573 31.621 37.6681 30.9609 37.6494 30.2661Z" fill="white"/>
</g>
</g>
<defs>
<clipPath id="clip0_400_2784">
<rect width="48" height="48" fill="white" transform="translate(0.326172 0.922852)"/>
</clipPath>
</defs>
</svg>
