<svg width="56" height="56" viewBox="0 0 56 56" fill="none" xmlns="http://www.w3.org/2000/svg">
<circle cx="28" cy="28" r="27.5" transform="rotate(-180 28 28)" stroke="white" stroke-opacity="0.1"/>
<path d="M22.08 28.3798C22.1276 28.5026 22.199 28.6147 22.29 28.7098L27.29 33.7098C27.3832 33.8031 27.4939 33.877 27.6158 33.9275C27.7376 33.9779 27.8681 34.0039 28 34.0039C28.2663 34.0039 28.5217 33.8981 28.71 33.7098C28.8032 33.6166 28.8772 33.5059 28.9277 33.3841C28.9781 33.2622 29.0041 33.1317 29.0041 32.9998C29.0041 32.7335 28.8983 32.4781 28.71 32.2898L25.41 28.9998L33 28.9998C33.2652 28.9998 33.5196 28.8945 33.7071 28.7069C33.8946 28.5194 34 28.265 34 27.9998C34 27.7346 33.8946 27.4802 33.7071 27.2927C33.5196 27.1052 33.2652 26.9998 33 26.9998L25.41 26.9998L28.71 23.7098C28.8037 23.6169 28.8781 23.5063 28.9289 23.3844C28.9797 23.2625 29.0058 23.1318 29.0058 22.9998C29.0058 22.8678 28.9797 22.7371 28.9289 22.6152C28.8781 22.4934 28.8037 22.3828 28.71 22.2898C28.617 22.1961 28.5064 22.1217 28.3846 22.0709C28.2627 22.0202 28.132 21.994 28 21.994C27.868 21.994 27.7373 22.0202 27.6154 22.0709C27.4936 22.1217 27.383 22.1961 27.29 22.2898L22.29 27.2898C22.199 27.3849 22.1276 27.4971 22.08 27.6198C21.98 27.8633 21.98 28.1364 22.08 28.3798Z" fill="white"/>
</svg>
