<svg width="1440" height="816" viewBox="0 0 1440 816" fill="none" xmlns="http://www.w3.org/2000/svg">
<g clip-path="url(#clip0_390_18634)">
<rect width="1443" height="816" transform="translate(-1)" fill="#141D28"/>
<g opacity="0.2">
<mask id="mask0_390_18634" style="mask-type:luminance" maskUnits="userSpaceOnUse" x="7" y="-3" width="1435" height="957">
<path d="M1442 -3H7.5V953.333H1442V-3Z" fill="white"/>
</mask>
<g mask="url(#mask0_390_18634)">
<g style="mix-blend-mode:overlay" opacity="0.5">
<path d="M422.232 807.781C501.909 728.104 501.909 598.923 422.232 519.247C342.556 439.571 213.375 439.571 133.698 519.247C54.0221 598.923 54.0221 728.104 133.699 807.781C213.375 887.457 342.556 887.457 422.232 807.781Z" fill="#DDDDDD"/>
</g>
<g style="mix-blend-mode:overlay" opacity="0.5">
<path d="M1172.52 509.27C1285.85 509.27 1377.71 417.402 1377.71 304.079C1377.71 190.755 1285.85 98.8878 1172.52 98.8878C1059.2 98.8878 967.333 190.755 967.333 304.079C967.333 417.402 1059.2 509.27 1172.52 509.27Z" fill="#DDDDDD"/>
</g>
<path d="M844.523 110.344H833.334L838.938 101.699L844.523 93.0731L850.127 101.699L855.731 110.344H844.523Z" fill="#FF4237"/>
<path d="M844.523 206.686H833.334L838.938 198.04L844.523 189.414L850.127 198.04L855.731 206.686H844.523Z" fill="#FF4237"/>
<path d="M844.523 250.18H833.334L838.938 241.534L844.523 232.889L850.127 241.534L855.731 250.18H844.523Z" fill="#DDDDDD"/>
<path d="M69.1465 799.383C69.1465 797.979 69.5627 796.607 70.3424 795.441C71.1221 794.274 72.2303 793.364 73.527 792.827C74.8236 792.29 76.2503 792.149 77.6268 792.423C79.0033 792.697 80.2677 793.373 81.2601 794.365C82.2525 795.358 82.9283 796.622 83.2021 797.999C83.4759 799.375 83.3354 800.802 82.7983 802.098C82.2612 803.395 81.3517 804.503 80.1848 805.283C79.0179 806.063 77.6459 806.479 76.2425 806.479C74.3605 806.479 72.5556 805.731 71.2249 804.4C69.8941 803.07 69.1465 801.265 69.1465 799.383Z" stroke="white" stroke-miterlimit="10"/>
<path d="M69.1465 767.04C69.1465 765.636 69.5627 764.264 70.3424 763.097C71.1221 761.93 72.2303 761.021 73.527 760.484C74.8236 759.947 76.2503 759.806 77.6268 760.08C79.0033 760.354 80.2677 761.03 81.2601 762.022C82.2525 763.014 82.9283 764.279 83.2021 765.655C83.4759 767.032 83.3354 768.459 82.7983 769.755C82.2612 771.052 81.3517 772.16 80.1848 772.94C79.0179 773.719 77.6459 774.136 76.2425 774.136C74.3605 774.136 72.5556 773.388 71.2249 772.057C69.8941 770.726 69.1465 768.922 69.1465 767.04Z" stroke="white" stroke-miterlimit="10"/>
<path d="M69.1465 734.696C69.1465 733.293 69.5627 731.921 70.3424 730.754C71.1221 729.587 72.2303 728.678 73.527 728.141C74.8236 727.604 76.2503 727.463 77.6268 727.737C79.0033 728.011 80.2677 728.686 81.2601 729.679C82.2525 730.671 82.9283 731.936 83.2021 733.312C83.4759 734.689 83.3354 736.115 82.7983 737.412C82.2612 738.709 81.3517 739.817 80.1848 740.597C79.0179 741.376 77.6459 741.792 76.2425 741.792C74.3605 741.792 72.5556 741.045 71.2249 739.714C69.8941 738.383 69.1465 736.578 69.1465 734.696Z" stroke="white" stroke-miterlimit="10"/>
<path d="M69.1465 702.353C69.1465 700.95 69.5627 699.578 70.3424 698.411C71.1221 697.244 72.2303 696.335 73.527 695.797C74.8236 695.26 76.2503 695.12 77.6268 695.394C79.0033 695.667 80.2677 696.343 81.2601 697.336C82.2525 698.328 82.9283 699.592 83.2021 700.969C83.4759 702.345 83.3354 703.772 82.7983 705.069C82.2612 706.365 81.3517 707.474 80.1848 708.253C79.0179 709.033 77.6459 709.449 76.2425 709.449C74.3605 709.449 72.5556 708.702 71.2249 707.371C69.8941 706.04 69.1465 704.235 69.1465 702.353Z" stroke="white" stroke-miterlimit="10"/>
<path d="M290.461 8.95415C290.461 10.3576 290.044 11.7295 289.265 12.8965C288.485 14.0634 287.377 14.9729 286.08 15.51C284.783 16.0471 283.357 16.1876 281.98 15.9138C280.604 15.64 279.339 14.9642 278.347 13.9718C277.355 12.9794 276.679 11.715 276.405 10.3385C276.131 8.96202 276.272 7.53525 276.809 6.23863C277.346 4.94201 278.255 3.83376 279.422 3.05404C280.589 2.27433 281.961 1.85815 283.365 1.85815C285.247 1.85815 287.051 2.60577 288.382 3.93652C289.713 5.26728 290.461 7.07217 290.461 8.95415Z" stroke="white" stroke-miterlimit="10"/>
<path d="M290.461 41.2973C290.461 42.7007 290.044 44.0727 289.265 45.2396C288.485 46.4065 287.377 47.316 286.08 47.8531C284.783 48.3902 283.357 48.5307 281.98 48.2569C280.604 47.9831 279.339 47.3073 278.347 46.3149C277.355 45.3225 276.679 44.0581 276.405 42.6816C276.131 41.3052 276.272 39.8784 276.809 38.5818C277.346 37.2851 278.255 36.1769 279.422 35.3972C280.589 34.6175 281.961 34.2013 283.365 34.2013C285.247 34.2013 287.051 34.9489 288.382 36.2797C289.713 37.6104 290.461 39.4153 290.461 41.2973Z" stroke="white" stroke-miterlimit="10"/>
<path d="M290.461 73.6404C290.461 75.0439 290.044 76.4158 289.265 77.5827C288.485 78.7497 287.377 79.6592 286.08 80.1963C284.783 80.7333 283.357 80.8739 281.98 80.6001C280.604 80.3263 279.339 79.6504 278.347 78.6581C277.355 77.6657 276.679 76.4013 276.405 75.0248C276.131 73.6483 276.272 72.2215 276.809 70.9249C277.346 69.6283 278.255 68.52 279.422 67.7403C280.589 66.9606 281.961 66.5444 283.365 66.5444C285.247 66.5444 287.051 67.292 288.382 68.6228C289.713 69.9536 290.461 71.7585 290.461 73.6404Z" stroke="white" stroke-miterlimit="10"/>
<path d="M290.461 106.022C290.461 107.425 290.044 108.797 289.265 109.964C288.485 111.131 287.377 112.041 286.08 112.578C284.783 113.115 283.357 113.255 281.98 112.982C280.604 112.708 279.339 112.032 278.347 111.04C277.355 110.047 276.679 108.783 276.405 107.406C276.131 106.03 276.272 104.603 276.809 103.307C277.346 102.01 278.255 100.902 279.422 100.122C280.589 99.3422 281.961 98.926 283.365 98.926C285.247 98.926 287.051 99.6736 288.382 101.004C289.713 102.335 290.461 104.14 290.461 106.022Z" stroke="white" stroke-miterlimit="10"/>
<path d="M290.461 138.327C290.461 139.73 290.044 141.102 289.265 142.269C288.485 143.436 287.377 144.345 286.08 144.883C284.783 145.42 283.357 145.56 281.98 145.286C280.604 145.013 279.339 144.337 278.347 143.344C277.355 142.352 276.679 141.088 276.405 139.711C276.131 138.335 276.272 136.908 276.809 135.611C277.346 134.315 278.255 133.206 279.422 132.427C280.589 131.647 281.961 131.231 283.365 131.231C285.245 131.236 287.047 131.985 288.377 133.315C289.706 134.644 290.455 136.446 290.461 138.327Z" stroke="white" stroke-miterlimit="10"/>
<path d="M-44.1409 425.437C-54.3928 366.145 -10.5354 307.101 45.2571 284.703C101.05 262.306 164.722 270.033 221.892 288.643C273.859 305.59 329.766 331.315 380.643 311.175C419.451 295.873 444.125 256.587 456.002 216.555C467.88 176.523 469.563 134.31 477.577 93.2645C485.591 52.2187 501.447 10.3886 534.364 -15.375C575.563 -47.5269 632.694 -46.9914 684.948 -44.9639" stroke="#FF4237" stroke-miterlimit="10"/>
<path d="M741.315 1087.39C718.975 999.409 791.369 932.466 862.616 896.125C940.538 856.304 1028.41 852.038 1114.19 856.495C1189.76 860.435 1279.33 884.248 1321.33 801.219C1339.21 765.892 1343.9 725.516 1365.32 691.719C1392.1 649.43 1441.29 625.273 1490.81 617.947C1540.33 610.622 1590.75 618.043 1640 626.841" stroke="#FF4237" stroke-miterlimit="10"/>
<path d="M100.073 84.8678H71.3447V113.596H100.073V84.8678Z" fill="#FF4237"/>
<path d="M128.802 113.577H100.074V142.305H128.802V113.577Z" fill="#DDDDDD"/>
<path d="M871.338 515.772C880.366 508.829 885.033 514.893 894.06 507.969C903.088 501.045 898.44 494.963 907.449 488.039C916.458 481.115 921.144 487.159 930.171 480.235C939.199 473.311 934.532 467.229 943.56 460.305C952.588 453.381 957.255 459.444 966.283 452.501C975.31 445.558 970.663 439.514 979.671 432.571C988.68 425.628 993.366 431.711 1002.39 424.768C1011.42 417.825 1006.77 411.762 1015.78 404.838C1024.79 397.914 1029.48 403.958 1038.52 397.034C1047.57 390.11 1042.9 384.028 1051.91 377.085" stroke="white" stroke-miterlimit="10"/>
<path d="M150.588 782.915C159.673 776.048 164.283 782.15 173.368 775.264C182.453 768.378 177.824 762.296 186.909 755.43C195.995 748.563 200.604 754.665 209.689 747.779C218.774 740.893 214.146 734.811 223.231 727.945C232.316 721.078 236.926 727.18 246.011 720.294C255.096 713.408 250.467 707.326 259.553 700.46C268.638 693.593 273.247 699.675 282.332 692.809C291.418 685.942 286.808 679.841 295.874 672.975C304.94 666.108 309.588 672.19 318.673 665.324C327.758 658.457 323.149 652.356 332.234 645.47" stroke="white" stroke-miterlimit="10"/>
<path d="M1102 113.252H1018.1V197.161H1102V113.252Z" stroke="#FF4237" stroke-miterlimit="10"/>
<path d="M1071.08 144.18H987.168V228.088H1071.08V144.18Z" stroke="#FF4237" stroke-miterlimit="10"/>
<path d="M987.168 144.18L1018.1 113.252" stroke="#FF4237" stroke-miterlimit="10"/>
<path d="M1102.02 113.252L1071.1 144.18" stroke="#FF4237" stroke-miterlimit="10"/>
<path d="M1072.02 228.088L1102.03 197.161" stroke="#FF4237" stroke-miterlimit="10"/>
<path d="M987.646 228.088L1017.64 197.161" stroke="#FF4237" stroke-miterlimit="10"/>
<path d="M205.117 56.4075C205.117 57.1073 204.909 57.7915 204.521 58.3734C204.132 58.9553 203.579 59.4088 202.933 59.6766C202.286 59.9444 201.575 60.0145 200.888 59.878C200.202 59.7414 199.571 59.4044 199.076 58.9096C198.582 58.4147 198.245 57.7842 198.108 57.0978C197.971 56.4114 198.042 55.7 198.309 55.0534C198.577 54.4068 199.031 53.8542 199.613 53.4654C200.195 53.0766 200.879 52.8691 201.578 52.8691C202.044 52.8665 202.505 52.9563 202.936 53.1333C203.366 53.3102 203.757 53.5707 204.086 53.8998C204.415 54.2289 204.676 54.62 204.853 55.0504C205.03 55.4809 205.119 55.9421 205.117 56.4075Z" fill="#FF4237"/>
<path d="M1213.34 805.503C1213.34 804.633 1213.6 803.783 1214.08 803.059C1214.57 802.336 1215.25 801.772 1216.06 801.439C1216.86 801.106 1217.74 801.019 1218.6 801.189C1219.45 801.359 1220.24 801.777 1220.85 802.393C1221.47 803.008 1221.88 803.792 1222.05 804.645C1222.22 805.498 1222.14 806.383 1221.8 807.187C1221.47 807.991 1220.91 808.678 1220.18 809.161C1219.46 809.645 1218.61 809.903 1217.74 809.903C1216.57 809.903 1215.45 809.439 1214.63 808.614C1213.8 807.789 1213.34 806.67 1213.34 805.503Z" fill="#DDDDDD"/>
<path d="M118.454 329.995C120.883 329.995 122.853 328.026 122.853 325.596C122.853 323.167 120.883 321.197 118.454 321.197C116.024 321.197 114.055 323.167 114.055 325.596C114.055 328.026 116.024 329.995 118.454 329.995Z" fill="#DDDDDD"/>
<path d="M55.9112 595.072C55.9074 594.197 56.1633 593.341 56.6465 592.612C57.1296 591.883 57.8184 591.313 58.6253 590.976C59.4323 590.639 60.3213 590.549 61.1796 590.717C62.0379 590.885 62.827 591.304 63.4468 591.922C64.0666 592.539 64.4893 593.326 64.6613 594.184C64.8334 595.041 64.747 595.93 64.4132 596.739C64.0793 597.547 63.5131 598.238 62.7861 598.725C62.0591 599.211 61.2041 599.471 60.3294 599.471C59.7501 599.473 59.176 599.361 58.6401 599.141C58.1041 598.921 57.6169 598.598 57.2064 598.189C56.7959 597.78 56.4701 597.295 56.2479 596.76C56.0256 596.225 55.9112 595.651 55.9112 595.072Z" fill="#FF4237"/>
<path d="M249.758 483.621C248.859 483.42 248.075 482.872 247.577 482.096C247.079 481.32 246.907 480.38 247.099 479.478C247.29 478.577 247.829 477.787 248.6 477.28C249.37 476.774 250.308 476.592 251.212 476.773C251.673 476.858 252.112 477.034 252.504 477.29C252.896 477.547 253.232 477.879 253.494 478.267C253.756 478.656 253.938 479.092 254.029 479.552C254.12 480.011 254.118 480.484 254.024 480.943C253.92 481.399 253.727 481.83 253.456 482.212C253.186 482.593 252.843 482.918 252.446 483.166C252.05 483.415 251.609 483.583 251.148 483.661C250.686 483.739 250.214 483.725 249.758 483.621Z" fill="#DDDDDD"/>
<path d="M242.128 503.092C241.335 502.646 240.739 501.92 240.455 501.056C240.172 500.192 240.223 499.253 240.598 498.425C241.013 497.616 241.723 496.998 242.581 496.699C243.439 496.4 244.38 496.443 245.207 496.818C245.628 497.012 246.005 497.289 246.315 497.633C246.625 497.977 246.862 498.381 247.01 498.819C247.159 499.258 247.217 499.722 247.179 500.184C247.142 500.646 247.012 501.095 246.795 501.504C246.61 501.93 246.339 502.313 245.997 502.628C245.656 502.942 245.253 503.182 244.813 503.332C244.374 503.481 243.908 503.537 243.445 503.496C242.983 503.454 242.534 503.317 242.128 503.092Z" fill="#DDDDDD"/>
<path d="M229.771 519.981C229.101 519.366 228.698 518.514 228.648 517.606C228.598 516.698 228.905 515.807 229.504 515.122C230.117 514.462 230.954 514.054 231.852 513.976C232.749 513.898 233.644 514.157 234.362 514.702C234.728 514.991 235.03 515.353 235.249 515.765C235.468 516.177 235.6 516.63 235.635 517.095C235.671 517.56 235.611 518.028 235.457 518.468C235.304 518.909 235.061 519.313 234.744 519.655C234.442 520.008 234.073 520.297 233.658 520.505C233.243 520.713 232.79 520.836 232.326 520.866C231.863 520.896 231.398 520.834 230.959 520.682C230.521 520.529 230.117 520.291 229.771 519.981Z" fill="#DDDDDD"/>
<path d="M213.667 533.331C213.423 532.953 213.256 532.529 213.177 532.086C213.098 531.643 213.109 531.188 213.208 530.749C213.413 529.885 213.905 529.116 214.604 528.568C214.981 528.308 215.405 528.125 215.853 528.029C216.3 527.933 216.762 527.926 217.213 528.009C217.663 528.091 218.092 528.262 218.477 528.511C218.861 528.759 219.193 529.081 219.453 529.458C219.713 529.835 219.896 530.259 219.992 530.706C220.088 531.154 220.095 531.616 220.012 532.066C219.93 532.517 219.759 532.946 219.511 533.33C219.262 533.715 218.94 534.046 218.563 534.306C218.186 534.599 217.748 534.805 217.282 534.907C216.815 535.01 216.332 535.007 215.867 534.899C215.412 534.803 214.982 534.614 214.604 534.344C214.225 534.074 213.906 533.729 213.667 533.331Z" fill="#DDDDDD"/>
<g opacity="0.2">
<path d="M194.75 542.282C194.49 541.427 194.567 540.504 194.965 539.704C195.363 538.904 196.053 538.286 196.892 537.978C197.731 537.67 198.656 537.694 199.478 538.046C200.3 538.399 200.955 539.052 201.311 539.872C201.486 540.297 201.571 540.754 201.56 541.214C201.55 541.674 201.444 542.126 201.25 542.543C201.056 542.96 200.778 543.333 200.433 543.637C200.087 543.94 199.683 544.17 199.245 544.309C198.818 544.489 198.359 544.578 197.897 544.572C197.434 544.566 196.978 544.465 196.556 544.275C196.134 544.085 195.756 543.81 195.445 543.467C195.135 543.124 194.898 542.72 194.75 542.282Z" fill="#FF4237"/>
</g>
<g opacity="0.3">
<path d="M174.189 546.127C174.163 545.244 174.471 544.384 175.052 543.719C175.634 543.054 176.445 542.633 177.323 542.541C178.202 542.449 179.082 542.693 179.789 543.223C180.495 543.753 180.975 544.531 181.132 545.4C181.218 545.874 181.205 546.36 181.094 546.829C180.983 547.298 180.776 547.738 180.487 548.123C180.198 548.509 179.833 548.83 179.414 549.067C178.995 549.305 178.531 549.453 178.052 549.504C177.573 549.554 177.089 549.504 176.63 549.359C176.171 549.213 175.747 548.975 175.384 548.658C175.021 548.341 174.728 547.952 174.523 547.517C174.317 547.081 174.203 546.608 174.189 546.127Z" fill="#FF4237"/>
</g>
<g opacity="0.4">
<path d="M153.305 544.864C153.469 543.967 153.971 543.167 154.708 542.63C155.445 542.092 156.36 541.858 157.264 541.976C158.165 542.14 158.971 542.64 159.518 543.375C160.064 544.11 160.312 545.025 160.21 545.935C160.16 546.395 160.015 546.839 159.785 547.239C159.554 547.64 159.243 547.988 158.871 548.261C158.498 548.535 158.073 548.728 157.622 548.828C157.171 548.928 156.704 548.933 156.25 548.843C155.79 548.787 155.346 548.639 154.946 548.406C154.545 548.173 154.196 547.861 153.92 547.488C153.645 547.116 153.448 546.691 153.342 546.24C153.236 545.789 153.223 545.321 153.305 544.864Z" fill="#FF4237"/>
</g>
<g opacity="0.5">
<path d="M133.412 538.285C133.795 537.47 134.482 536.837 135.326 536.522C136.169 536.207 137.103 536.236 137.926 536.602C138.761 536.934 139.43 537.583 139.789 538.407C140.147 539.231 140.165 540.163 139.839 541.001C139.687 541.46 139.442 541.883 139.119 542.244C138.796 542.604 138.402 542.893 137.962 543.093C137.521 543.293 137.044 543.4 136.56 543.406C136.077 543.413 135.597 543.319 135.151 543.13C134.706 542.942 134.304 542.663 133.971 542.312C133.639 541.961 133.383 541.544 133.219 541.089C133.056 540.634 132.989 540.149 133.022 539.667C133.055 539.184 133.188 538.713 133.412 538.285Z" fill="#FF4237"/>
</g>
<g opacity="0.6">
<path d="M115.72 527.21C116.306 526.514 117.131 526.061 118.033 525.941C118.935 525.821 119.85 526.042 120.597 526.56C121.313 527.127 121.785 527.945 121.916 528.849C122.048 529.752 121.829 530.671 121.305 531.418C121.036 531.795 120.692 532.112 120.295 532.35C119.898 532.589 119.457 532.743 118.998 532.804C118.539 532.865 118.072 532.831 117.627 532.705C117.182 532.578 116.767 532.362 116.409 532.069C116.028 531.808 115.706 531.47 115.463 531.078C115.22 530.686 115.061 530.248 114.996 529.791C114.931 529.334 114.962 528.869 115.087 528.425C115.211 527.98 115.427 527.567 115.72 527.21Z" fill="#FF4237"/>
</g>
<g opacity="0.7">
<path d="M101.451 511.909C102.179 511.373 103.087 511.141 103.983 511.262C104.879 511.383 105.693 511.849 106.252 512.559C106.793 513.279 107.043 514.176 106.955 515.072C106.866 515.968 106.445 516.798 105.774 517.398C105.42 517.704 105.008 517.934 104.561 518.073C104.115 518.213 103.645 518.259 103.18 518.208C102.716 518.158 102.266 518.013 101.86 517.781C101.454 517.55 101.1 517.237 100.82 516.863C100.53 516.499 100.315 516.08 100.19 515.632C100.064 515.183 100.03 514.714 100.088 514.252C100.147 513.791 100.298 513.345 100.532 512.943C100.766 512.54 101.079 512.189 101.451 511.909Z" fill="#FF4237"/>
</g>
<g opacity="0.8">
<path d="M91.3344 493.585C92.178 493.272 93.1081 493.285 93.9428 493.621C94.7776 493.957 95.457 494.592 95.8483 495.402C96.0575 495.82 96.18 496.276 96.2085 496.742C96.237 497.208 96.1708 497.675 96.014 498.115C95.8572 498.555 95.6129 498.959 95.296 499.302C94.979 499.645 94.5959 499.921 94.1697 500.112C93.7435 500.303 93.283 500.406 92.816 500.414C92.349 500.423 91.8851 500.337 91.4522 500.161C91.0193 499.986 90.6264 499.724 90.2972 499.393C89.968 499.062 89.7092 498.667 89.5365 498.233C89.3294 497.813 89.2117 497.355 89.1908 496.887C89.17 496.419 89.2465 495.952 89.4155 495.515C89.5845 495.078 89.8423 494.681 90.1726 494.349C90.5029 494.017 90.8985 493.757 91.3344 493.585Z" fill="#FF4237"/>
</g>
<g opacity="0.9">
<path d="M86.15 473.254C87.0521 473.137 87.9648 473.371 88.6985 473.909C89.4322 474.447 89.9305 475.246 90.0901 476.142C90.1978 477.043 89.9682 477.952 89.4455 478.694C88.9228 479.435 88.1441 479.957 87.2594 480.159C86.8049 480.255 86.3354 480.255 85.8809 480.159C85.4264 480.063 84.9971 479.873 84.6206 479.601C84.244 479.329 83.9286 478.981 83.6946 478.579C83.4606 478.178 83.3132 477.732 83.2619 477.271C83.1773 476.816 83.1856 476.349 83.2864 475.898C83.3871 475.447 83.5782 475.021 83.8481 474.645C84.118 474.27 84.4611 473.953 84.8567 473.714C85.2523 473.475 85.6923 473.318 86.15 473.254Z" fill="#FF4237"/>
</g>
<path d="M86.1496 452.406C87.0522 452.534 87.8723 453.001 88.444 453.711C89.0157 454.421 89.2963 455.322 89.229 456.231C89.1651 457.131 88.7505 457.97 88.0745 458.567C87.3984 459.165 86.5149 459.473 85.614 459.425C85.1436 459.399 84.6834 459.278 84.2609 459.07C83.8383 458.862 83.4622 458.57 83.155 458.213C82.8478 457.856 82.6159 457.44 82.4731 456.991C82.3304 456.542 82.2797 456.069 82.3242 455.6C82.3467 455.132 82.4659 454.674 82.6745 454.255C82.8831 453.835 83.1764 453.464 83.5359 453.164C83.8955 452.863 84.3134 452.641 84.7633 452.511C85.2132 452.38 85.6852 452.345 86.1496 452.406Z" fill="#FF4237"/>
<g opacity="0.02">
<path d="M91.3322 432.132C92.182 432.463 92.8712 433.109 93.256 433.936C93.6409 434.762 93.6917 435.706 93.3979 436.569C93.0595 437.408 92.4234 438.092 91.6116 438.491C90.7999 438.89 89.8695 438.975 88.9987 438.73C88.5538 438.599 88.1414 438.376 87.7883 438.075C87.4352 437.774 87.1492 437.403 86.9491 436.984C86.7489 436.566 86.6389 436.11 86.6262 435.646C86.6136 435.183 86.6986 434.722 86.8757 434.293C87.0172 433.852 87.2466 433.445 87.5502 433.095C87.8537 432.745 88.225 432.461 88.6415 432.259C89.0581 432.057 89.5114 431.941 89.9738 431.919C90.4363 431.898 90.8984 431.97 91.3322 432.132Z" fill="#FF4237"/>
</g>
<g opacity="0.05">
<path d="M101.45 413.828C102.176 414.357 102.667 415.148 102.821 416.033C102.974 416.918 102.778 417.828 102.272 418.571C101.789 419.329 101.026 419.867 100.149 420.067C99.2721 420.268 98.3516 420.115 97.5864 419.642C97.192 419.393 96.851 419.068 96.5833 418.687C96.3155 418.305 96.1263 417.874 96.0266 417.418C95.927 416.962 95.9188 416.492 96.0027 416.033C96.0866 415.574 96.2609 415.137 96.5153 414.746C96.7729 414.354 97.1068 414.018 97.4972 413.759C97.8876 413.5 98.3264 413.322 98.7872 413.236C99.248 413.15 99.7214 413.158 100.179 413.26C100.637 413.362 101.069 413.555 101.45 413.828Z" fill="#FF4237"/>
</g>
<g opacity="0.1">
<path d="M115.72 398.507C116.301 399.213 116.597 400.113 116.547 401.026C116.497 401.94 116.107 402.802 115.452 403.442C114.757 404.035 113.862 404.342 112.949 404.299C112.036 404.257 111.173 403.868 110.536 403.212C109.913 402.525 109.587 401.618 109.632 400.69C109.677 399.763 110.088 398.892 110.776 398.268C111.463 397.644 112.37 397.319 113.297 397.363C114.224 397.408 115.096 397.82 115.72 398.507Z" fill="#FF4237"/>
</g>
<g opacity="0.2">
<path d="M133.412 387.356C133.807 388.17 133.868 389.105 133.582 389.963C133.296 390.821 132.685 391.533 131.881 391.947C131.073 392.318 130.163 392.406 129.299 392.195C128.42 391.955 127.671 391.378 127.215 390.588C126.984 390.19 126.837 389.749 126.781 389.292C126.725 388.836 126.762 388.372 126.889 387.93C127.012 387.467 127.236 387.038 127.543 386.671C127.85 386.304 128.234 386.009 128.668 385.807C129.081 385.593 129.531 385.464 129.994 385.426C130.457 385.389 130.923 385.444 131.364 385.588C131.806 385.732 132.214 385.963 132.566 386.266C132.917 386.57 133.205 386.94 133.412 387.356Z" fill="#FF4237"/>
</g>
<g opacity="0.3">
<path d="M153.303 380.853C153.49 381.714 153.332 382.613 152.863 383.359C152.388 384.123 151.645 384.682 150.779 384.927C149.892 385.127 148.963 384.978 148.183 384.512C147.403 384.045 146.833 383.297 146.59 382.421C146.483 381.974 146.465 381.51 146.538 381.057C146.61 380.603 146.772 380.167 147.012 379.776C147.253 379.384 147.568 379.044 147.941 378.774C148.313 378.504 148.734 378.311 149.181 378.204C149.629 378.097 150.092 378.079 150.546 378.152C151 378.224 151.435 378.386 151.827 378.626C152.219 378.867 152.559 379.182 152.829 379.555C153.098 379.927 153.292 380.348 153.399 380.796L153.303 380.853Z" fill="#FF4237"/>
</g>
<g opacity="0.4">
<path d="M174.189 379.533C174.139 380.44 173.737 381.291 173.069 381.905C172.401 382.52 171.519 382.849 170.612 382.823C169.742 382.78 168.918 382.422 168.292 381.817C167.666 381.212 167.28 380.401 167.207 379.533C167.19 379.066 167.271 378.6 167.446 378.166C167.62 377.732 167.883 377.339 168.218 377.013C168.553 376.687 168.953 376.434 169.392 376.272C169.83 376.11 170.298 376.042 170.765 376.071C171.675 376.086 172.543 376.457 173.183 377.104C173.823 377.751 174.184 378.623 174.189 379.533Z" fill="#FF4237"/>
</g>
<g opacity="0.5">
<path d="M194.75 383.454C194.455 384.284 193.852 384.968 193.067 385.367C192.482 385.718 191.805 385.887 191.124 385.851C190.442 385.815 189.787 385.576 189.242 385.165C188.697 384.753 188.288 384.189 188.066 383.543C187.845 382.898 187.821 382.201 187.999 381.542C188.111 381.09 188.314 380.666 188.595 380.295C188.876 379.925 189.229 379.615 189.633 379.384C190.037 379.153 190.483 379.007 190.945 378.954C191.407 378.901 191.875 378.941 192.321 379.074C193.235 379.304 194.024 379.88 194.521 380.681C194.743 381.104 194.879 381.568 194.918 382.044C194.957 382.521 194.9 383 194.75 383.454Z" fill="#FF4237"/>
</g>
<g opacity="0.6">
<path d="M213.669 392.406C213.186 393.174 212.425 393.727 211.545 393.948C210.665 394.169 209.733 394.041 208.944 393.591C208.184 393.108 207.631 392.357 207.395 391.487C207.258 391.06 207.208 390.61 207.247 390.164C207.287 389.717 207.415 389.283 207.625 388.886C207.845 388.468 208.147 388.099 208.513 387.801C208.88 387.503 209.302 387.283 209.756 387.152C210.21 387.022 210.686 386.985 211.154 387.043C211.623 387.102 212.075 387.254 212.483 387.492C212.891 387.73 213.247 388.047 213.529 388.426C213.811 388.805 214.014 389.237 214.124 389.696C214.235 390.155 214.252 390.632 214.174 391.097C214.095 391.563 213.924 392.008 213.669 392.406Z" fill="#FF4237"/>
</g>
<g opacity="0.7">
<path d="M229.771 405.756C229.118 406.375 228.252 406.72 227.352 406.72C226.452 406.72 225.586 406.375 224.932 405.756C224.277 405.132 223.892 404.276 223.86 403.371C223.827 402.467 224.151 401.586 224.76 400.917C225.081 400.58 225.466 400.309 225.892 400.121C226.318 399.932 226.776 399.83 227.242 399.819C227.708 399.809 228.171 399.89 228.605 400.059C229.039 400.227 229.435 400.48 229.771 400.802C230.102 401.125 230.364 401.51 230.543 401.935C230.722 402.361 230.815 402.817 230.815 403.279C230.815 403.741 230.722 404.197 230.543 404.623C230.364 405.048 230.102 405.433 229.771 405.756Z" fill="#FF4237"/>
</g>
<g opacity="0.8">
<path d="M242.128 422.626C241.339 423.041 240.423 423.141 239.564 422.903C238.705 422.666 237.969 422.111 237.506 421.35C237.042 420.589 236.887 419.68 237.07 418.808C237.254 417.937 237.763 417.168 238.493 416.658C239.281 416.243 240.198 416.144 241.057 416.381C241.916 416.618 242.652 417.173 243.115 417.934C243.578 418.695 243.734 419.604 243.551 420.476C243.367 421.347 242.858 422.116 242.128 422.626Z" fill="#FF4237"/>
</g>
<g opacity="0.9">
<path d="M249.76 442.116C248.887 442.345 247.96 442.223 247.177 441.776C246.393 441.329 245.817 440.593 245.571 439.725C245.379 439.063 245.39 438.359 245.601 437.703C245.812 437.047 246.214 436.469 246.755 436.043C247.297 435.617 247.953 435.362 248.64 435.311C249.327 435.26 250.014 435.415 250.613 435.756C251.211 436.098 251.694 436.61 251.999 437.228C252.305 437.846 252.419 438.54 252.328 439.223C252.236 439.906 251.943 440.546 251.485 441.062C251.028 441.577 250.427 441.944 249.76 442.116Z" fill="#FF4237"/>
</g>
<path d="M252.475 462.868C251.559 462.871 250.676 462.528 250.002 461.907C249.328 461.286 248.913 460.434 248.841 459.521C248.818 458.612 249.145 457.729 249.753 457.053C250.361 456.377 251.205 455.96 252.112 455.887C252.573 455.853 253.037 455.914 253.475 456.066C253.912 456.219 254.313 456.459 254.654 456.773C254.995 457.087 255.267 457.467 255.455 457.89C255.643 458.314 255.742 458.771 255.746 459.234C255.788 459.691 255.735 460.152 255.59 460.588C255.446 461.024 255.213 461.425 254.905 461.767C254.598 462.108 254.224 462.382 253.805 462.572C253.387 462.761 252.934 462.862 252.475 462.868Z" fill="#FF4237"/>
<mask id="mask1_390_18634" style="mask-type:luminance" maskUnits="userSpaceOnUse" x="384" y="663" width="173" height="173">
<path d="M552.632 774.109C566.319 728.8 540.684 680.974 495.375 667.286C450.066 653.599 402.239 679.234 388.552 724.543C374.865 769.853 400.5 817.679 445.809 831.366C491.118 845.053 538.944 819.418 552.632 774.109Z" fill="white"/>
</mask>
<g mask="url(#mask1_390_18634)">
<path d="M512.098 618.808L248.839 829.106" stroke="white" stroke-width="1.56" stroke-miterlimit="10"/>
<path d="M535.529 627.932L272.27 838.21" stroke="white" stroke-width="1.56" stroke-miterlimit="10"/>
<path d="M558.94 637.036L295.699 847.314" stroke="white" stroke-width="1.56" stroke-miterlimit="10"/>
<path d="M582.371 646.14L319.111 856.438" stroke="white" stroke-width="1.56" stroke-miterlimit="10"/>
<path d="M605.8 655.264L342.541 865.542" stroke="white" stroke-width="1.56" stroke-miterlimit="10"/>
<path d="M629.231 664.368L365.972 874.646" stroke="white" stroke-width="1.56" stroke-miterlimit="10"/>
<path d="M652.661 673.491L389.401 883.77" stroke="white" stroke-width="1.56" stroke-miterlimit="10"/>
<path d="M676.09 682.595L412.831 892.874" stroke="white" stroke-width="1.56" stroke-miterlimit="10"/>
</g>
<path d="M1245.88 706.924C1246.44 706.921 1246.99 707.083 1247.45 707.392C1247.92 707.701 1248.29 708.142 1248.5 708.658C1248.72 709.175 1248.78 709.745 1248.67 710.296C1248.57 710.846 1248.3 711.352 1247.9 711.75C1247.51 712.148 1247 712.419 1246.45 712.53C1245.9 712.641 1245.33 712.586 1244.82 712.372C1244.3 712.158 1243.85 711.796 1243.54 711.33C1243.23 710.864 1243.06 710.316 1243.06 709.755C1243.06 709.008 1243.36 708.291 1243.89 707.76C1244.41 707.23 1245.13 706.929 1245.88 706.924Z" fill="#FF4237"/>
<path d="M1245.88 678.407C1246.44 678.403 1246.99 678.566 1247.46 678.876C1247.92 679.185 1248.29 679.627 1248.51 680.145C1248.72 680.663 1248.78 681.234 1248.67 681.785C1248.56 682.336 1248.29 682.842 1247.9 683.239C1247.5 683.636 1246.99 683.906 1246.44 684.015C1245.89 684.123 1245.32 684.066 1244.8 683.849C1244.29 683.632 1243.84 683.267 1243.53 682.798C1243.22 682.33 1243.06 681.78 1243.06 681.218C1243.06 680.849 1243.14 680.484 1243.28 680.142C1243.42 679.801 1243.63 679.491 1243.89 679.23C1244.15 678.969 1244.46 678.762 1244.8 678.621C1245.14 678.479 1245.51 678.407 1245.88 678.407Z" fill="#FF4237"/>
<path d="M1245.88 655.531C1247.44 655.531 1248.71 654.264 1248.71 652.7C1248.71 651.137 1247.44 649.87 1245.88 649.87C1244.31 649.87 1243.04 651.137 1243.04 652.7C1243.04 654.264 1244.31 655.531 1245.88 655.531Z" fill="#DDDDDD"/>
<path d="M1245.88 626.994C1247.44 626.994 1248.71 625.727 1248.71 624.163C1248.71 622.6 1247.44 621.333 1245.88 621.333C1244.31 621.333 1243.04 622.6 1243.04 624.163C1243.04 625.727 1244.31 626.994 1245.88 626.994Z" fill="#DDDDDD"/>
<path d="M1245.88 598.457C1247.44 598.457 1248.71 597.19 1248.71 595.626C1248.71 594.063 1247.44 592.796 1245.88 592.796C1244.31 592.796 1243.04 594.063 1243.04 595.626C1243.04 597.19 1244.31 598.457 1245.88 598.457Z" fill="#DDDDDD"/>
<path d="M1245.88 569.939C1247.44 569.939 1248.71 568.672 1248.71 567.109C1248.71 565.545 1247.44 564.278 1245.88 564.278C1244.31 564.278 1243.04 565.545 1243.04 567.109C1243.04 568.672 1244.31 569.939 1245.88 569.939Z" fill="#DDDDDD"/>
<path d="M1245.88 541.402C1247.44 541.402 1248.71 540.135 1248.71 538.571C1248.71 537.008 1247.44 535.741 1245.88 535.741C1244.31 535.741 1243.04 537.008 1243.04 538.571C1243.04 540.135 1244.31 541.402 1245.88 541.402Z" fill="#DDDDDD"/>
<path d="M1245.88 512.865C1247.44 512.865 1248.71 511.598 1248.71 510.034C1248.71 508.471 1247.44 507.204 1245.88 507.204C1244.31 507.204 1243.04 508.471 1243.04 510.034C1243.04 511.598 1244.31 512.865 1245.88 512.865Z" fill="#DDDDDD"/>
<path d="M1267.49 706.925C1268.05 706.925 1268.6 707.091 1269.06 707.402C1269.53 707.713 1269.89 708.155 1270.1 708.672C1270.32 709.189 1270.37 709.758 1270.27 710.308C1270.16 710.857 1269.89 711.361 1269.49 711.757C1269.09 712.153 1268.59 712.422 1268.04 712.532C1267.49 712.641 1266.92 712.585 1266.41 712.371C1265.89 712.156 1265.45 711.793 1265.14 711.328C1264.82 710.862 1264.66 710.315 1264.66 709.755C1264.66 709.005 1264.96 708.285 1265.49 707.754C1266.02 707.223 1266.74 706.925 1267.49 706.925Z" fill="#FF4237"/>
<path d="M1267.49 678.407C1268.05 678.407 1268.6 678.573 1269.06 678.885C1269.53 679.197 1269.89 679.64 1270.11 680.159C1270.32 680.677 1270.37 681.247 1270.26 681.797C1270.15 682.346 1269.88 682.851 1269.48 683.246C1269.09 683.641 1268.58 683.909 1268.03 684.016C1267.48 684.123 1266.91 684.064 1266.39 683.847C1265.88 683.63 1265.43 683.264 1265.13 682.796C1264.82 682.328 1264.65 681.779 1264.66 681.218C1264.66 680.848 1264.73 680.48 1264.87 680.138C1265.02 679.796 1265.23 679.485 1265.49 679.224C1265.75 678.962 1266.06 678.755 1266.41 678.615C1266.75 678.475 1267.12 678.404 1267.49 678.407Z" fill="#FF4237"/>
<path d="M1267.49 655.531C1269.05 655.531 1270.32 654.264 1270.32 652.7C1270.32 651.137 1269.05 649.87 1267.49 649.87C1265.93 649.87 1264.66 651.137 1264.66 652.7C1264.66 654.264 1265.93 655.531 1267.49 655.531Z" fill="#DDDDDD"/>
<path d="M1267.49 626.994C1269.05 626.994 1270.32 625.727 1270.32 624.163C1270.32 622.6 1269.05 621.333 1267.49 621.333C1265.93 621.333 1264.66 622.6 1264.66 624.163C1264.66 625.727 1265.93 626.994 1267.49 626.994Z" fill="#DDDDDD"/>
<path d="M1267.49 598.457C1269.05 598.457 1270.32 597.19 1270.32 595.626C1270.32 594.063 1269.05 592.796 1267.49 592.796C1265.93 592.796 1264.66 594.063 1264.66 595.626C1264.66 597.19 1265.93 598.457 1267.49 598.457Z" fill="#DDDDDD"/>
<path d="M1267.49 569.939C1269.05 569.939 1270.32 568.672 1270.32 567.109C1270.32 565.545 1269.05 564.278 1267.49 564.278C1265.93 564.278 1264.66 565.545 1264.66 567.109C1264.66 568.672 1265.93 569.939 1267.49 569.939Z" fill="#DDDDDD"/>
<path d="M1267.49 541.402C1269.05 541.402 1270.32 540.135 1270.32 538.571C1270.32 537.008 1269.05 535.741 1267.49 535.741C1265.93 535.741 1264.66 537.008 1264.66 538.571C1264.66 540.135 1265.93 541.402 1267.49 541.402Z" fill="#DDDDDD"/>
<path d="M1267.49 512.865C1269.05 512.865 1270.32 511.598 1270.32 510.034C1270.32 508.471 1269.05 507.204 1267.49 507.204C1265.93 507.204 1264.66 508.471 1264.66 510.034C1264.66 511.598 1265.93 512.865 1267.49 512.865Z" fill="#DDDDDD"/>
<path d="M1289.1 706.925C1289.66 706.925 1290.21 707.091 1290.67 707.402C1291.14 707.713 1291.5 708.155 1291.72 708.672C1291.93 709.189 1291.99 709.758 1291.88 710.308C1291.77 710.857 1291.5 711.361 1291.1 711.757C1290.71 712.153 1290.2 712.422 1289.65 712.532C1289.11 712.641 1288.54 712.585 1288.02 712.371C1287.5 712.156 1287.06 711.793 1286.75 711.328C1286.44 710.862 1286.27 710.315 1286.27 709.755C1286.28 709.006 1286.58 708.289 1287.11 707.759C1287.64 707.229 1288.35 706.93 1289.1 706.925Z" fill="#FF4237"/>
<path d="M1289.1 678.407C1289.66 678.407 1290.21 678.573 1290.68 678.885C1291.14 679.197 1291.51 679.64 1291.72 680.159C1291.93 680.677 1291.99 681.247 1291.88 681.797C1291.77 682.346 1291.49 682.851 1291.1 683.246C1290.7 683.641 1290.19 683.909 1289.64 684.016C1289.09 684.123 1288.52 684.064 1288.01 683.847C1287.49 683.63 1287.05 683.264 1286.74 682.796C1286.43 682.328 1286.27 681.779 1286.27 681.218C1286.28 680.471 1286.58 679.756 1287.11 679.229C1287.64 678.702 1288.35 678.407 1289.1 678.407Z" fill="#FF4237"/>
<path d="M1289.1 649.87C1289.66 649.87 1290.21 650.036 1290.67 650.347C1291.14 650.658 1291.5 651.1 1291.72 651.617C1291.93 652.134 1291.99 652.704 1291.88 653.253C1291.77 653.802 1291.5 654.306 1291.1 654.702C1290.71 655.098 1290.2 655.368 1289.65 655.477C1289.11 655.586 1288.54 655.53 1288.02 655.316C1287.5 655.101 1287.06 654.739 1286.75 654.273C1286.44 653.808 1286.27 653.26 1286.27 652.7C1286.27 652.329 1286.34 651.961 1286.49 651.617C1286.63 651.274 1286.84 650.962 1287.1 650.699C1287.36 650.436 1287.68 650.227 1288.02 650.085C1288.36 649.943 1288.73 649.87 1289.1 649.87Z" fill="#DDDDDD"/>
<path d="M1289.1 621.333C1289.66 621.333 1290.21 621.499 1290.67 621.81C1291.14 622.121 1291.5 622.563 1291.72 623.08C1291.93 623.597 1291.99 624.166 1291.88 624.716C1291.77 625.265 1291.5 625.769 1291.1 626.165C1290.71 626.561 1290.2 626.83 1289.65 626.94C1289.11 627.049 1288.54 626.993 1288.02 626.779C1287.5 626.564 1287.06 626.202 1286.75 625.736C1286.44 625.27 1286.27 624.723 1286.27 624.163C1286.27 623.413 1286.57 622.693 1287.1 622.162C1287.63 621.631 1288.35 621.333 1289.1 621.333Z" fill="#DDDDDD"/>
<path d="M1289.1 592.815C1289.66 592.815 1290.21 592.981 1290.68 593.293C1291.14 593.605 1291.51 594.048 1291.72 594.567C1291.93 595.085 1291.99 595.655 1291.88 596.205C1291.77 596.755 1291.49 597.259 1291.1 597.654C1290.7 598.049 1290.19 598.317 1289.64 598.424C1289.09 598.531 1288.52 598.473 1288.01 598.255C1287.49 598.038 1287.05 597.672 1286.74 597.204C1286.43 596.736 1286.27 596.187 1286.27 595.627C1286.28 594.879 1286.58 594.164 1287.11 593.637C1287.64 593.111 1288.35 592.815 1289.1 592.815Z" fill="#DDDDDD"/>
<path d="M1289.1 564.278C1289.66 564.278 1290.21 564.444 1290.67 564.755C1291.14 565.066 1291.5 565.508 1291.72 566.025C1291.93 566.543 1291.99 567.112 1291.88 567.661C1291.77 568.21 1291.5 568.714 1291.1 569.11C1290.71 569.506 1290.2 569.776 1289.65 569.885C1289.11 569.994 1288.54 569.938 1288.02 569.724C1287.5 569.51 1287.06 569.147 1286.75 568.681C1286.44 568.216 1286.27 567.668 1286.27 567.109C1286.27 566.358 1286.57 565.638 1287.1 565.107C1287.63 564.576 1288.35 564.278 1289.1 564.278Z" fill="#DDDDDD"/>
<path d="M1289.1 535.741C1289.66 535.741 1290.21 535.907 1290.67 536.218C1291.14 536.529 1291.5 536.971 1291.72 537.488C1291.93 538.006 1291.99 538.575 1291.88 539.124C1291.77 539.673 1291.5 540.177 1291.1 540.573C1290.71 540.969 1290.2 541.239 1289.65 541.348C1289.11 541.457 1288.54 541.401 1288.02 541.187C1287.5 540.973 1287.06 540.61 1286.75 540.144C1286.44 539.679 1286.27 539.132 1286.27 538.572C1286.27 537.821 1286.57 537.101 1287.1 536.57C1287.63 536.039 1288.35 535.741 1289.1 535.741Z" fill="#DDDDDD"/>
<path d="M1289.1 507.204C1289.66 507.204 1290.21 507.37 1290.67 507.681C1291.14 507.992 1291.5 508.434 1291.72 508.951C1291.93 509.468 1291.99 510.038 1291.88 510.587C1291.77 511.136 1291.5 511.64 1291.1 512.036C1290.71 512.432 1290.2 512.702 1289.65 512.811C1289.11 512.92 1288.54 512.864 1288.02 512.65C1287.5 512.436 1287.06 512.073 1286.75 511.607C1286.44 511.142 1286.27 510.594 1286.27 510.035C1286.28 509.285 1286.58 508.568 1287.11 508.038C1287.64 507.509 1288.35 507.209 1289.1 507.204Z" fill="#DDDDDD"/>
<path d="M1310.72 706.925C1311.28 706.925 1311.82 707.091 1312.29 707.402C1312.75 707.713 1313.12 708.155 1313.33 708.672C1313.55 709.189 1313.6 709.758 1313.49 710.308C1313.38 710.857 1313.11 711.361 1312.72 711.757C1312.32 712.153 1311.82 712.422 1311.27 712.532C1310.72 712.641 1310.15 712.585 1309.63 712.371C1309.12 712.156 1308.67 711.793 1308.36 711.328C1308.05 710.862 1307.89 710.315 1307.89 709.755C1307.89 709.005 1308.18 708.285 1308.71 707.754C1309.25 707.223 1309.97 706.925 1310.72 706.925Z" fill="#FF4237"/>
<path d="M1310.71 678.407C1311.27 678.407 1311.82 678.573 1312.29 678.885C1312.75 679.197 1313.12 679.64 1313.33 680.159C1313.54 680.677 1313.6 681.247 1313.49 681.797C1313.38 682.346 1313.11 682.851 1312.71 683.246C1312.31 683.641 1311.8 683.909 1311.25 684.016C1310.7 684.123 1310.13 684.064 1309.62 683.847C1309.1 683.63 1308.66 683.264 1308.35 682.796C1308.04 682.328 1307.88 681.779 1307.88 681.218C1307.88 680.848 1307.96 680.48 1308.1 680.138C1308.24 679.796 1308.45 679.485 1308.71 679.224C1308.98 678.962 1309.29 678.755 1309.63 678.615C1309.98 678.475 1310.34 678.404 1310.71 678.407Z" fill="#FF4237"/>
<path d="M1310.71 649.87C1311.27 649.87 1311.82 650.036 1312.29 650.347C1312.75 650.658 1313.11 651.1 1313.33 651.617C1313.54 652.134 1313.6 652.704 1313.49 653.253C1313.38 653.802 1313.11 654.306 1312.72 654.702C1312.32 655.098 1311.81 655.368 1311.27 655.477C1310.72 655.586 1310.15 655.53 1309.63 655.316C1309.11 655.101 1308.67 654.739 1308.36 654.273C1308.05 653.808 1307.88 653.26 1307.88 652.7C1307.88 652.328 1307.95 651.959 1308.09 651.614C1308.23 651.27 1308.44 650.956 1308.71 650.693C1308.97 650.43 1309.28 650.221 1309.63 650.08C1309.97 649.939 1310.34 649.867 1310.71 649.87Z" fill="#DDDDDD"/>
<path d="M1310.71 621.333C1311.27 621.333 1311.82 621.499 1312.29 621.81C1312.75 622.121 1313.11 622.563 1313.33 623.08C1313.54 623.597 1313.6 624.166 1313.49 624.716C1313.38 625.265 1313.11 625.769 1312.72 626.165C1312.32 626.561 1311.81 626.83 1311.27 626.94C1310.72 627.049 1310.15 626.993 1309.63 626.779C1309.11 626.564 1308.67 626.201 1308.36 625.736C1308.05 625.27 1307.88 624.723 1307.88 624.163C1307.88 623.791 1307.95 623.422 1308.09 623.077C1308.23 622.732 1308.44 622.419 1308.71 622.156C1308.97 621.893 1309.28 621.684 1309.63 621.543C1309.97 621.401 1310.34 621.33 1310.71 621.333Z" fill="#DDDDDD"/>
<path d="M1310.71 592.815C1311.27 592.815 1311.82 592.982 1312.29 593.293C1312.75 593.605 1313.12 594.049 1313.33 594.567C1313.54 595.085 1313.6 595.655 1313.49 596.205C1313.38 596.755 1313.11 597.259 1312.71 597.654C1312.31 598.049 1311.8 598.317 1311.25 598.424C1310.7 598.531 1310.13 598.473 1309.62 598.255C1309.1 598.038 1308.66 597.673 1308.35 597.204C1308.04 596.736 1307.88 596.187 1307.88 595.627C1307.88 595.256 1307.96 594.889 1308.1 594.546C1308.24 594.204 1308.45 593.893 1308.71 593.632C1308.98 593.37 1309.29 593.164 1309.63 593.024C1309.98 592.883 1310.34 592.812 1310.71 592.815Z" fill="#DDDDDD"/>
<path d="M1310.71 564.278C1311.27 564.278 1311.82 564.444 1312.29 564.755C1312.75 565.066 1313.11 565.508 1313.33 566.025C1313.54 566.543 1313.6 567.112 1313.49 567.661C1313.38 568.21 1313.11 568.714 1312.72 569.11C1312.32 569.506 1311.81 569.776 1311.27 569.885C1310.72 569.994 1310.15 569.938 1309.63 569.724C1309.11 569.51 1308.67 569.147 1308.36 568.681C1308.05 568.216 1307.88 567.669 1307.88 567.109C1307.88 566.736 1307.95 566.367 1308.09 566.022C1308.23 565.678 1308.44 565.365 1308.71 565.101C1308.97 564.838 1309.28 564.63 1309.63 564.488C1309.97 564.347 1310.34 564.275 1310.71 564.278Z" fill="#DDDDDD"/>
<path d="M1310.71 535.741C1311.27 535.741 1311.82 535.907 1312.29 536.218C1312.75 536.529 1313.11 536.971 1313.33 537.488C1313.54 538.005 1313.6 538.575 1313.49 539.124C1313.38 539.673 1313.11 540.177 1312.72 540.573C1312.32 540.969 1311.81 541.239 1311.27 541.348C1310.72 541.457 1310.15 541.401 1309.63 541.187C1309.11 540.973 1308.67 540.61 1308.36 540.144C1308.05 539.679 1307.88 539.131 1307.88 538.571C1307.88 538.199 1307.95 537.83 1308.09 537.485C1308.23 537.141 1308.44 536.828 1308.71 536.564C1308.97 536.301 1309.28 536.092 1309.63 535.951C1309.97 535.81 1310.34 535.738 1310.71 535.741Z" fill="#DDDDDD"/>
<path d="M1310.72 507.204C1311.28 507.204 1311.82 507.37 1312.29 507.681C1312.75 507.992 1313.12 508.434 1313.33 508.951C1313.55 509.468 1313.6 510.038 1313.49 510.587C1313.38 511.136 1313.11 511.64 1312.72 512.036C1312.32 512.432 1311.82 512.702 1311.27 512.811C1310.72 512.92 1310.15 512.864 1309.63 512.65C1309.12 512.436 1308.67 512.073 1308.36 511.607C1308.05 511.142 1307.89 510.594 1307.89 510.035C1307.89 509.284 1308.18 508.564 1308.71 508.033C1309.25 507.502 1309.97 507.204 1310.72 507.204Z" fill="#DDDDDD"/>
<path d="M371.519 475.377C371.519 475.938 371.352 476.486 371.041 476.952C370.729 477.418 370.285 477.781 369.767 477.994C369.249 478.208 368.678 478.263 368.129 478.152C367.579 478.041 367.075 477.77 366.68 477.372C366.285 476.974 366.017 476.468 365.909 475.918C365.802 475.367 365.861 474.797 366.078 474.281C366.296 473.764 366.661 473.323 367.129 473.014C367.597 472.705 368.147 472.543 368.707 472.546C369.455 472.552 370.17 472.852 370.697 473.382C371.223 473.913 371.519 474.63 371.519 475.377Z" fill="#DDDDDD"/>
<path d="M400.057 475.377C400.057 475.937 399.891 476.484 399.58 476.95C399.269 477.415 398.827 477.778 398.31 477.992C397.792 478.207 397.223 478.263 396.674 478.153C396.125 478.044 395.621 477.775 395.225 477.379C394.829 476.983 394.559 476.478 394.45 475.929C394.341 475.38 394.397 474.811 394.611 474.294C394.825 473.777 395.188 473.334 395.654 473.023C396.119 472.712 396.666 472.546 397.226 472.546C397.977 472.546 398.697 472.845 399.228 473.375C399.759 473.906 400.057 474.626 400.057 475.377Z" fill="#DDDDDD"/>
<path d="M428.593 475.377C428.593 475.937 428.427 476.484 428.116 476.95C427.805 477.415 427.363 477.778 426.846 477.992C426.328 478.207 425.759 478.263 425.21 478.153C424.661 478.044 424.157 477.775 423.761 477.379C423.365 476.983 423.095 476.478 422.986 475.929C422.877 475.38 422.933 474.811 423.147 474.294C423.361 473.777 423.724 473.334 424.19 473.023C424.655 472.712 425.203 472.546 425.762 472.546C426.513 472.546 427.233 472.845 427.764 473.375C428.295 473.906 428.593 474.626 428.593 475.377Z" fill="#DDDDDD"/>
<path d="M457.112 475.377C457.112 475.938 456.945 476.486 456.633 476.952C456.321 477.418 455.878 477.781 455.36 477.994C454.841 478.208 454.271 478.263 453.722 478.152C453.172 478.041 452.668 477.77 452.273 477.372C451.877 476.974 451.609 476.468 451.502 475.918C451.395 475.367 451.454 474.797 451.671 474.281C451.888 473.764 452.254 473.323 452.722 473.014C453.19 472.705 453.739 472.543 454.3 472.546C455.048 472.552 455.763 472.852 456.289 473.382C456.816 473.913 457.112 474.63 457.112 475.377Z" fill="#DDDDDD"/>
<path d="M485.667 475.377C485.667 475.937 485.501 476.484 485.19 476.95C484.879 477.415 484.437 477.778 483.92 477.992C483.403 478.207 482.833 478.263 482.284 478.153C481.735 478.044 481.231 477.775 480.835 477.379C480.439 476.983 480.169 476.478 480.06 475.929C479.951 475.38 480.007 474.811 480.221 474.294C480.436 473.777 480.798 473.334 481.264 473.023C481.729 472.712 482.277 472.546 482.837 472.546C483.587 472.546 484.307 472.845 484.838 473.375C485.369 473.906 485.667 474.626 485.667 475.377Z" fill="#DDDDDD"/>
<path d="M514.185 475.377C514.185 475.937 514.019 476.484 513.708 476.95C513.397 477.415 512.955 477.778 512.437 477.992C511.92 478.207 511.351 478.263 510.802 478.153C510.253 478.044 509.748 477.775 509.353 477.379C508.957 476.983 508.687 476.478 508.578 475.929C508.469 475.38 508.525 474.811 508.739 474.294C508.953 473.777 509.316 473.334 509.782 473.023C510.247 472.712 510.794 472.546 511.354 472.546C512.105 472.546 512.825 472.845 513.356 473.375C513.887 473.906 514.185 474.626 514.185 475.377Z" fill="#DDDDDD"/>
<path d="M542.722 475.377C542.722 475.937 542.556 476.484 542.245 476.95C541.934 477.415 541.492 477.778 540.975 477.992C540.457 478.207 539.888 478.263 539.339 478.153C538.79 478.044 538.286 477.775 537.89 477.379C537.494 476.983 537.224 476.478 537.115 475.929C537.006 475.38 537.062 474.811 537.276 474.294C537.49 473.777 537.853 473.334 538.319 473.023C538.784 472.712 539.331 472.546 539.891 472.546C540.641 472.551 541.358 472.851 541.887 473.381C542.417 473.911 542.717 474.628 542.722 475.377Z" fill="#FF4237"/>
<path d="M571.24 475.377C571.24 475.938 571.073 476.486 570.761 476.952C570.449 477.418 570.006 477.781 569.488 477.994C568.969 478.208 568.399 478.263 567.85 478.152C567.3 478.041 566.796 477.77 566.4 477.372C566.005 476.974 565.737 476.468 565.63 475.918C565.523 475.367 565.582 474.797 565.799 474.281C566.016 473.764 566.382 473.323 566.85 473.014C567.318 472.705 567.867 472.543 568.428 472.546C569.175 472.552 569.891 472.852 570.417 473.382C570.944 473.913 571.24 474.63 571.24 475.377Z" fill="#FF4237"/>
<path d="M371.519 496.99C371.519 497.551 371.352 498.099 371.041 498.565C370.729 499.031 370.285 499.394 369.767 499.607C369.249 499.821 368.678 499.876 368.129 499.765C367.579 499.654 367.075 499.383 366.68 498.985C366.285 498.587 366.017 498.081 365.909 497.531C365.802 496.98 365.861 496.411 366.078 495.894C366.296 495.377 366.661 494.936 367.129 494.627C367.597 494.319 368.147 494.156 368.707 494.159C369.078 494.159 369.445 494.233 369.788 494.375C370.13 494.518 370.441 494.727 370.702 494.99C370.964 495.253 371.17 495.565 371.31 495.908C371.451 496.252 371.521 496.619 371.519 496.99Z" fill="#DDDDDD"/>
<path d="M400.057 496.99C400.057 497.55 399.891 498.097 399.58 498.563C399.269 499.028 398.827 499.391 398.31 499.606C397.792 499.82 397.223 499.876 396.674 499.767C396.125 499.657 395.621 499.388 395.225 498.992C394.829 498.596 394.559 498.092 394.45 497.542C394.341 496.993 394.397 496.424 394.611 495.907C394.825 495.39 395.188 494.948 395.654 494.637C396.119 494.326 396.666 494.159 397.226 494.159C397.599 494.157 397.968 494.228 398.313 494.37C398.657 494.511 398.97 494.72 399.234 494.983C399.497 495.246 399.705 495.559 399.847 495.904C399.988 496.249 400.06 496.618 400.057 496.99Z" fill="#DDDDDD"/>
<path d="M428.593 496.99C428.593 497.55 428.427 498.097 428.116 498.563C427.805 499.028 427.363 499.391 426.846 499.606C426.328 499.82 425.759 499.876 425.21 499.767C424.661 499.657 424.157 499.388 423.761 498.992C423.365 498.596 423.095 498.092 422.986 497.542C422.877 496.993 422.933 496.424 423.147 495.907C423.361 495.39 423.724 494.948 424.19 494.637C424.655 494.326 425.203 494.159 425.762 494.159C426.135 494.157 426.504 494.228 426.849 494.37C427.193 494.511 427.506 494.72 427.77 494.983C428.033 495.246 428.241 495.559 428.383 495.904C428.524 496.249 428.596 496.618 428.593 496.99Z" fill="#DDDDDD"/>
<path d="M457.112 496.99C457.112 497.551 456.945 498.099 456.633 498.565C456.321 499.031 455.878 499.394 455.36 499.607C454.841 499.821 454.271 499.876 453.722 499.765C453.172 499.654 452.668 499.383 452.273 498.985C451.877 498.587 451.609 498.081 451.502 497.531C451.395 496.98 451.454 496.411 451.671 495.894C451.888 495.377 452.254 494.936 452.722 494.627C453.19 494.319 453.739 494.156 454.3 494.159C454.671 494.159 455.038 494.233 455.38 494.375C455.723 494.518 456.034 494.727 456.295 494.99C456.556 495.253 456.763 495.565 456.903 495.908C457.043 496.252 457.114 496.619 457.112 496.99Z" fill="#DDDDDD"/>
<path d="M485.667 496.99C485.667 497.55 485.501 498.097 485.19 498.563C484.879 499.028 484.437 499.391 483.92 499.606C483.403 499.82 482.833 499.876 482.284 499.767C481.735 499.657 481.231 499.388 480.835 498.992C480.439 498.596 480.169 498.092 480.06 497.542C479.951 496.993 480.007 496.424 480.221 495.907C480.436 495.39 480.798 494.948 481.264 494.637C481.729 494.326 482.277 494.159 482.837 494.159C483.209 494.157 483.578 494.228 483.923 494.37C484.267 494.511 484.581 494.72 484.844 494.983C485.107 495.246 485.316 495.559 485.457 495.904C485.598 496.249 485.67 496.618 485.667 496.99Z" fill="#DDDDDD"/>
<path d="M514.185 496.99C514.185 497.55 514.019 498.097 513.708 498.563C513.397 499.028 512.955 499.391 512.437 499.606C511.92 499.82 511.351 499.876 510.802 499.767C510.253 499.657 509.748 499.388 509.353 498.992C508.957 498.596 508.687 498.092 508.578 497.542C508.469 496.993 508.525 496.424 508.739 495.907C508.953 495.39 509.316 494.948 509.782 494.637C510.247 494.326 510.794 494.159 511.354 494.159C511.727 494.157 512.096 494.228 512.441 494.37C512.785 494.511 513.098 494.72 513.362 494.983C513.625 495.246 513.833 495.559 513.975 495.904C514.116 496.249 514.188 496.618 514.185 496.99Z" fill="#DDDDDD"/>
<path d="M542.722 496.99C542.722 497.55 542.556 498.097 542.245 498.563C541.934 499.028 541.492 499.391 540.975 499.605C540.457 499.82 539.888 499.876 539.339 499.767C538.79 499.657 538.286 499.388 537.89 498.992C537.494 498.596 537.224 498.092 537.115 497.542C537.006 496.993 537.062 496.424 537.276 495.907C537.49 495.39 537.853 494.948 538.319 494.636C538.784 494.325 539.331 494.159 539.891 494.159C540.642 494.159 541.362 494.458 541.893 494.989C542.424 495.519 542.722 496.239 542.722 496.99Z" fill="#FF4237"/>
<path d="M571.24 496.99C571.24 497.551 571.073 498.099 570.761 498.565C570.449 499.031 570.006 499.394 569.488 499.607C568.969 499.821 568.399 499.876 567.85 499.765C567.3 499.654 566.796 499.383 566.4 498.985C566.005 498.587 565.737 498.081 565.63 497.531C565.523 496.98 565.582 496.411 565.799 495.894C566.016 495.377 566.382 494.936 566.85 494.627C567.318 494.319 567.867 494.156 568.428 494.159C568.799 494.159 569.166 494.233 569.508 494.375C569.851 494.518 570.162 494.727 570.423 494.99C570.684 495.253 570.891 495.565 571.031 495.908C571.171 496.252 571.242 496.619 571.24 496.99Z" fill="#FF4237"/>
<path d="M371.519 518.584C371.519 519.145 371.352 519.693 371.041 520.159C370.729 520.625 370.285 520.988 369.767 521.201C369.249 521.415 368.678 521.47 368.129 521.359C367.579 521.248 367.075 520.977 366.68 520.579C366.285 520.181 366.017 519.675 365.909 519.125C365.802 518.574 365.861 518.005 366.078 517.488C366.296 516.971 366.661 516.53 367.129 516.221C367.597 515.912 368.147 515.75 368.707 515.753C369.078 515.753 369.445 515.827 369.788 515.969C370.13 516.112 370.441 516.321 370.702 516.584C370.964 516.847 371.17 517.159 371.31 517.502C371.451 517.846 371.521 518.213 371.519 518.584Z" fill="#DDDDDD"/>
<path d="M400.057 518.584C400.057 519.144 399.891 519.691 399.58 520.157C399.269 520.622 398.827 520.985 398.31 521.199C397.792 521.414 397.223 521.47 396.674 521.36C396.125 521.251 395.621 520.982 395.225 520.586C394.829 520.19 394.559 519.686 394.45 519.136C394.341 518.587 394.397 518.018 394.611 517.501C394.825 516.984 395.188 516.542 395.654 516.23C396.119 515.919 396.666 515.753 397.226 515.753C397.977 515.753 398.697 516.052 399.228 516.583C399.759 517.113 400.057 517.833 400.057 518.584Z" fill="#DDDDDD"/>
<path d="M428.593 518.584C428.593 519.144 428.427 519.691 428.116 520.157C427.805 520.622 427.363 520.985 426.846 521.199C426.328 521.414 425.759 521.47 425.21 521.36C424.661 521.251 424.157 520.982 423.761 520.586C423.365 520.19 423.095 519.686 422.986 519.136C422.877 518.587 422.933 518.018 423.147 517.501C423.361 516.984 423.724 516.542 424.19 516.23C424.655 515.919 425.203 515.753 425.762 515.753C426.513 515.753 427.233 516.052 427.764 516.583C428.295 517.113 428.593 517.833 428.593 518.584Z" fill="#DDDDDD"/>
<path d="M457.112 518.584C457.112 519.145 456.945 519.693 456.633 520.159C456.321 520.625 455.878 520.988 455.36 521.201C454.841 521.415 454.271 521.47 453.722 521.359C453.172 521.248 452.668 520.977 452.273 520.579C451.877 520.181 451.609 519.675 451.502 519.125C451.395 518.574 451.454 518.005 451.671 517.488C451.888 516.971 452.254 516.53 452.722 516.221C453.19 515.912 453.739 515.75 454.3 515.753C454.671 515.753 455.038 515.827 455.38 515.969C455.723 516.112 456.034 516.321 456.295 516.584C456.556 516.847 456.763 517.159 456.903 517.502C457.043 517.846 457.114 518.213 457.112 518.584Z" fill="#DDDDDD"/>
<path d="M485.667 518.584C485.667 519.144 485.501 519.691 485.19 520.157C484.879 520.622 484.437 520.985 483.92 521.199C483.403 521.414 482.833 521.47 482.284 521.36C481.735 521.251 481.231 520.982 480.835 520.586C480.439 520.19 480.169 519.686 480.06 519.136C479.951 518.587 480.007 518.018 480.221 517.501C480.436 516.984 480.798 516.542 481.264 516.23C481.729 515.919 482.277 515.753 482.837 515.753C483.587 515.753 484.307 516.052 484.838 516.583C485.369 517.113 485.667 517.833 485.667 518.584Z" fill="#DDDDDD"/>
<path d="M514.185 518.584C514.185 519.144 514.019 519.691 513.708 520.157C513.397 520.622 512.955 520.985 512.437 521.199C511.92 521.414 511.351 521.47 510.802 521.36C510.253 521.251 509.748 520.982 509.353 520.586C508.957 520.19 508.687 519.686 508.578 519.136C508.469 518.587 508.525 518.018 508.739 517.501C508.953 516.984 509.316 516.542 509.782 516.23C510.247 515.919 510.794 515.753 511.354 515.753C512.105 515.753 512.825 516.052 513.356 516.583C513.887 517.113 514.185 517.833 514.185 518.584Z" fill="#DDDDDD"/>
<path d="M542.722 518.584C542.722 519.144 542.556 519.691 542.245 520.157C541.934 520.622 541.492 520.985 540.975 521.199C540.457 521.414 539.888 521.47 539.339 521.36C538.79 521.251 538.286 520.982 537.89 520.586C537.494 520.19 537.224 519.686 537.115 519.136C537.006 518.587 537.062 518.018 537.276 517.501C537.49 516.984 537.853 516.542 538.319 516.23C538.784 515.919 539.331 515.753 539.891 515.753C540.642 515.753 541.362 516.052 541.893 516.583C542.424 517.113 542.722 517.833 542.722 518.584Z" fill="#FF4237"/>
<path d="M571.24 518.584C571.24 519.145 571.073 519.693 570.761 520.159C570.449 520.625 570.006 520.988 569.488 521.201C568.969 521.415 568.399 521.47 567.85 521.359C567.3 521.248 566.796 520.977 566.4 520.579C566.005 520.181 565.737 519.675 565.63 519.125C565.523 518.574 565.582 518.005 565.799 517.488C566.016 516.971 566.382 516.53 566.85 516.221C567.318 515.912 567.867 515.75 568.428 515.753C568.799 515.753 569.166 515.827 569.508 515.969C569.851 516.112 570.162 516.321 570.423 516.584C570.684 516.847 570.891 517.159 571.031 517.502C571.171 517.846 571.242 518.213 571.24 518.584Z" fill="#FF4237"/>
<path d="M371.519 540.197C371.519 540.758 371.352 541.306 371.041 541.772C370.729 542.238 370.285 542.601 369.767 542.814C369.249 543.028 368.678 543.083 368.129 542.972C367.579 542.861 367.075 542.59 366.68 542.192C366.285 541.794 366.017 541.288 365.909 540.738C365.802 540.187 365.861 539.618 366.078 539.101C366.296 538.584 366.661 538.143 367.129 537.834C367.597 537.526 368.147 537.363 368.707 537.367C369.078 537.367 369.445 537.44 369.788 537.582C370.13 537.725 370.441 537.934 370.702 538.197C370.964 538.46 371.17 538.772 371.31 539.116C371.451 539.459 371.521 539.827 371.519 540.197Z" fill="#DDDDDD"/>
<path d="M400.057 540.197C400.057 540.757 399.891 541.304 399.58 541.77C399.269 542.236 398.827 542.598 398.31 542.813C397.792 543.027 397.223 543.083 396.674 542.974C396.125 542.864 395.621 542.595 395.225 542.199C394.829 541.803 394.559 541.299 394.45 540.75C394.341 540.2 394.397 539.631 394.611 539.114C394.825 538.597 395.188 538.155 395.654 537.844C396.119 537.533 396.666 537.367 397.226 537.367C397.977 537.367 398.697 537.665 399.228 538.196C399.759 538.727 400.057 539.447 400.057 540.197Z" fill="#DDDDDD"/>
<path d="M428.593 540.197C428.593 540.757 428.427 541.304 428.116 541.77C427.805 542.236 427.363 542.598 426.846 542.813C426.328 543.027 425.759 543.083 425.21 542.974C424.661 542.864 424.157 542.595 423.761 542.199C423.365 541.803 423.095 541.299 422.986 540.75C422.877 540.2 422.933 539.631 423.147 539.114C423.361 538.597 423.724 538.155 424.19 537.844C424.655 537.533 425.203 537.367 425.762 537.367C426.513 537.367 427.233 537.665 427.764 538.196C428.295 538.727 428.593 539.447 428.593 540.197Z" fill="#DDDDDD"/>
<path d="M457.112 540.197C457.112 540.758 456.945 541.306 456.633 541.772C456.321 542.238 455.878 542.601 455.36 542.814C454.841 543.028 454.271 543.083 453.722 542.972C453.172 542.861 452.668 542.59 452.273 542.192C451.877 541.794 451.609 541.288 451.502 540.738C451.395 540.187 451.454 539.618 451.671 539.101C451.888 538.584 452.254 538.143 452.722 537.834C453.19 537.526 453.739 537.363 454.3 537.367C454.671 537.367 455.038 537.44 455.38 537.582C455.723 537.725 456.034 537.934 456.295 538.197C456.556 538.46 456.763 538.772 456.903 539.116C457.043 539.459 457.114 539.827 457.112 540.197Z" fill="#DDDDDD"/>
<path d="M485.667 540.197C485.667 540.757 485.501 541.304 485.19 541.77C484.879 542.236 484.437 542.598 483.92 542.813C483.403 543.027 482.833 543.083 482.284 542.974C481.735 542.864 481.231 542.595 480.835 542.199C480.439 541.803 480.169 541.299 480.06 540.75C479.951 540.2 480.007 539.631 480.221 539.114C480.436 538.597 480.798 538.155 481.264 537.844C481.729 537.533 482.277 537.367 482.837 537.367C483.587 537.367 484.307 537.665 484.838 538.196C485.369 538.727 485.667 539.447 485.667 540.197Z" fill="#DDDDDD"/>
<path d="M514.185 540.197C514.185 540.757 514.019 541.304 513.708 541.77C513.397 542.236 512.955 542.598 512.437 542.813C511.92 543.027 511.351 543.083 510.802 542.974C510.253 542.864 509.748 542.595 509.353 542.199C508.957 541.803 508.687 541.299 508.578 540.75C508.469 540.2 508.525 539.631 508.739 539.114C508.953 538.597 509.316 538.155 509.782 537.844C510.247 537.533 510.794 537.367 511.354 537.367C512.105 537.367 512.825 537.665 513.356 538.196C513.887 538.727 514.185 539.447 514.185 540.197Z" fill="#DDDDDD"/>
<path d="M542.722 540.197C542.722 540.757 542.556 541.304 542.245 541.77C541.934 542.236 541.492 542.598 540.975 542.813C540.457 543.027 539.888 543.083 539.339 542.974C538.79 542.864 538.286 542.595 537.89 542.199C537.494 541.803 537.224 541.299 537.115 540.75C537.006 540.2 537.062 539.631 537.276 539.114C537.49 538.597 537.853 538.155 538.319 537.844C538.784 537.533 539.331 537.367 539.891 537.367C540.642 537.367 541.362 537.665 541.893 538.196C542.424 538.727 542.722 539.447 542.722 540.197Z" fill="#FF4237"/>
<path d="M571.24 540.197C571.24 540.758 571.073 541.306 570.761 541.772C570.449 542.238 570.006 542.601 569.488 542.814C568.969 543.028 568.399 543.083 567.85 542.972C567.3 542.861 566.796 542.59 566.4 542.192C566.005 541.794 565.737 541.288 565.63 540.738C565.523 540.187 565.582 539.618 565.799 539.101C566.016 538.584 566.382 538.143 566.85 537.834C567.318 537.526 567.867 537.363 568.428 537.367C568.799 537.367 569.166 537.44 569.508 537.582C569.851 537.725 570.162 537.934 570.423 538.197C570.684 538.46 570.891 538.772 571.031 539.116C571.171 539.459 571.242 539.827 571.24 540.197Z" fill="#FF4237"/>
<g style="mix-blend-mode:overlay" opacity="0.5">
<path d="M579.387 14.5391L526.33 -41.7316L455.293 25.2118L384.276 -41.7316L331.219 14.5391L398.908 78.3456L331.219 142.152L384.276 198.442L455.293 131.499L526.33 198.442L579.387 142.152L511.679 78.3456L579.387 14.5391Z" fill="#DDDDDD"/>
</g>
<g style="mix-blend-mode:overlay" opacity="0.5">
<path d="M1044.61 840.658L991.549 784.368L920.512 851.312L849.495 784.368L796.438 840.658L864.127 904.465L796.438 968.252L849.495 1024.54L920.512 957.598L991.549 1024.54L1044.61 968.252L976.898 904.465L1044.61 840.658Z" fill="#DDDDDD"/>
</g>
<path d="M1126.1 -32.7229H887.174V14.367H1126.1V-32.7229Z" fill="#FF4237"/>
<path d="M865.79 -32.7229H784.827V14.367H865.79V-32.7229Z" fill="#FF4237"/>
<path d="M1505.23 534.402H1424.27V557.947H1505.23V534.402Z" fill="#FF4237"/>
<path d="M1505.23 490.258H1424.27V513.803H1505.23V490.258Z" fill="#FF4237"/>
<path d="M26.512 476.812H-54.4512V500.356H26.512V476.812Z" fill="#FF4237"/>
<path d="M772.146 430.831H759.886V453.611H772.146V430.831Z" fill="#FF4237"/>
<path opacity="0.2" d="M708.636 313.342C719.766 265.208 689.768 217.164 641.634 206.033C593.499 194.903 545.455 224.901 534.324 273.035C523.194 321.17 553.192 369.214 601.327 380.344C649.461 391.475 697.505 361.477 708.636 313.342Z" stroke="#FF4237" stroke-miterlimit="10"/>
<path opacity="0.35" d="M688.572 308.764C697.181 271.712 674.123 234.697 637.071 226.089C600.019 217.48 563.004 240.538 554.396 277.59C545.787 314.642 568.845 351.657 605.897 360.265C642.949 368.874 679.964 345.816 688.572 308.764Z" stroke="#FF4237" stroke-miterlimit="10"/>
<path opacity="0.5" d="M621.467 345.144C650.178 345.144 673.453 321.869 673.453 293.157C673.453 264.446 650.178 241.171 621.467 241.171C592.756 241.171 569.48 264.446 569.48 293.157C569.48 321.869 592.756 345.144 621.467 345.144Z" stroke="#FF4237" stroke-miterlimit="10"/>
<path d="M653.894 300.741C658.092 282.814 646.962 264.878 629.035 260.68C611.108 256.482 593.173 267.611 588.974 285.538C584.776 303.465 595.906 321.401 613.833 325.599C631.76 329.797 649.696 318.668 653.894 300.741Z" stroke="#FF4237" stroke-miterlimit="10"/>
<path d="M1166.56 325.596H1139.82V352.335H1166.56V325.596Z" fill="#FF4237"/>
<path d="M1166.56 375.899H1139.82V402.638H1166.56V375.899Z" fill="#DDDDDD"/>
<path d="M1166.56 496.531H1139.82V523.27H1166.56V496.531Z" stroke="#DDDDDD" stroke-miterlimit="10"/>
<path d="M1364.23 149.325C1363.34 149.103 1362.57 148.539 1362.09 147.755C1361.61 146.972 1361.46 146.031 1361.67 145.136C1361.75 144.672 1361.93 144.23 1362.19 143.836C1362.45 143.441 1362.79 143.103 1363.18 142.84C1363.57 142.577 1364.01 142.396 1364.47 142.306C1364.94 142.216 1365.41 142.219 1365.88 142.316C1366.34 142.413 1366.78 142.602 1367.16 142.87C1367.55 143.139 1367.88 143.482 1368.13 143.881C1368.39 144.279 1368.56 144.724 1368.64 145.189C1368.72 145.654 1368.7 146.13 1368.59 146.59C1368.49 147.057 1368.29 147.5 1368.02 147.891C1367.74 148.282 1367.39 148.615 1366.98 148.869C1366.58 149.124 1366.13 149.295 1365.65 149.373C1365.18 149.451 1364.7 149.435 1364.23 149.325Z" fill="#FF4237"/>
<path d="M1356.45 169.14C1355.65 168.671 1355.05 167.931 1354.76 167.056C1354.47 166.18 1354.51 165.229 1354.86 164.377C1355.29 163.55 1356.01 162.919 1356.89 162.613C1357.77 162.307 1358.74 162.35 1359.58 162.733C1360.01 162.932 1360.39 163.216 1360.71 163.568C1361.02 163.92 1361.26 164.332 1361.41 164.779C1361.56 165.226 1361.62 165.699 1361.58 166.169C1361.54 166.64 1361.41 167.097 1361.19 167.514C1361 167.948 1360.73 168.338 1360.38 168.659C1360.04 168.98 1359.63 169.224 1359.18 169.378C1358.73 169.531 1358.26 169.589 1357.79 169.548C1357.32 169.507 1356.86 169.368 1356.45 169.14Z" fill="#FF4237"/>
<path d="M1343.82 186.354C1343.15 185.723 1342.74 184.855 1342.69 183.931C1342.64 183.007 1342.95 182.1 1343.55 181.4C1344.18 180.727 1345.03 180.309 1345.95 180.228C1346.86 180.146 1347.77 180.407 1348.51 180.96C1348.88 181.254 1349.19 181.622 1349.42 182.042C1349.64 182.463 1349.78 182.925 1349.82 183.401C1349.85 183.876 1349.79 184.353 1349.63 184.803C1349.47 185.252 1349.22 185.663 1348.89 186.01C1348.58 186.371 1348.21 186.668 1347.79 186.882C1347.36 187.096 1346.9 187.222 1346.43 187.255C1345.96 187.287 1345.48 187.223 1345.03 187.069C1344.59 186.914 1344.17 186.671 1343.82 186.354Z" fill="#FF4237"/>
<path d="M1327.39 200.049C1327.14 199.662 1326.97 199.23 1326.89 198.777C1326.81 198.324 1326.81 197.859 1326.91 197.409C1327.13 196.529 1327.63 195.747 1328.35 195.19C1328.72 194.849 1329.16 194.59 1329.64 194.432C1330.12 194.273 1330.62 194.219 1331.12 194.273C1331.63 194.326 1332.11 194.486 1332.54 194.742C1332.98 194.997 1333.35 195.343 1333.64 195.755C1333.93 196.168 1334.13 196.637 1334.22 197.132C1334.32 197.628 1334.31 198.137 1334.19 198.627C1334.07 199.117 1333.85 199.576 1333.53 199.972C1333.22 200.369 1332.83 200.695 1332.38 200.928C1332 201.23 1331.56 201.44 1331.09 201.542C1330.61 201.645 1330.12 201.638 1329.65 201.521C1329.19 201.443 1328.76 201.272 1328.37 201.019C1327.98 200.766 1327.65 200.435 1327.39 200.049Z" fill="#FF4237"/>
<path d="M1308.11 209.172C1307.79 208.284 1307.83 207.304 1308.23 206.447C1308.63 205.589 1309.35 204.925 1310.24 204.601C1311.12 204.276 1312.1 204.317 1312.96 204.716C1313.82 205.114 1314.48 205.836 1314.81 206.724C1314.99 207.159 1315.07 207.627 1315.06 208.097C1315.05 208.567 1314.94 209.029 1314.74 209.455C1314.54 209.881 1314.25 210.261 1313.9 210.571C1313.55 210.881 1313.13 211.115 1312.68 211.257C1312.25 211.433 1311.78 211.518 1311.31 211.508C1310.84 211.498 1310.38 211.392 1309.95 211.197C1309.52 211.002 1309.14 210.722 1308.82 210.374C1308.51 210.025 1308.27 209.617 1308.11 209.172Z" fill="#FF4237"/>
<path d="M1287.08 213.131C1287.05 212.23 1287.37 211.352 1287.96 210.674C1288.56 209.997 1289.39 209.569 1290.29 209.477C1291.18 209.385 1292.08 209.636 1292.8 210.179C1293.52 210.722 1294.01 211.517 1294.17 212.404C1294.26 212.889 1294.24 213.386 1294.13 213.865C1294.02 214.344 1293.8 214.794 1293.51 215.188C1293.21 215.581 1292.84 215.909 1292.41 216.151C1291.98 216.393 1291.51 216.543 1291.02 216.594C1290.53 216.644 1290.03 216.592 1289.56 216.442C1289.09 216.292 1288.66 216.047 1288.29 215.722C1287.92 215.397 1287.62 214.999 1287.41 214.553C1287.2 214.108 1287.09 213.623 1287.08 213.131Z" fill="#FF4237"/>
<path d="M1265.81 211.811C1265.97 210.898 1266.49 210.083 1267.24 209.535C1267.99 208.987 1268.92 208.748 1269.84 208.866C1270.75 209.058 1271.56 209.573 1272.11 210.315C1272.67 211.058 1272.93 211.977 1272.86 212.902C1272.67 213.794 1272.15 214.58 1271.39 215.098C1270.64 215.616 1269.72 215.827 1268.82 215.687C1267.92 215.548 1267.1 215.069 1266.54 214.348C1265.98 213.628 1265.72 212.72 1265.81 211.811Z" fill="#FF4237"/>
<path d="M1245.51 205.194C1245.92 204.391 1246.62 203.773 1247.47 203.463C1248.31 203.153 1249.25 203.174 1250.08 203.522C1250.91 203.87 1251.58 204.52 1251.95 205.34C1252.33 206.161 1252.38 207.092 1252.09 207.948C1251.94 208.416 1251.69 208.846 1251.36 209.212C1251.03 209.579 1250.63 209.873 1250.18 210.077C1249.73 210.281 1249.24 210.39 1248.75 210.397C1248.26 210.405 1247.77 210.311 1247.32 210.12C1246.86 209.93 1246.45 209.648 1246.11 209.292C1245.77 208.936 1245.51 208.514 1245.34 208.051C1245.17 207.589 1245.1 207.096 1245.13 206.604C1245.16 206.113 1245.29 205.633 1245.51 205.194Z" fill="#FF4237"/>
<path d="M1227.44 193.813C1228.05 193.116 1228.89 192.664 1229.81 192.541C1230.73 192.418 1231.66 192.632 1232.43 193.144C1233.16 193.722 1233.64 194.556 1233.78 195.477C1233.91 196.397 1233.69 197.335 1233.16 198.098C1232.88 198.481 1232.53 198.804 1232.13 199.046C1231.72 199.289 1231.27 199.447 1230.81 199.509C1230.34 199.572 1229.86 199.538 1229.41 199.411C1228.95 199.283 1228.53 199.064 1228.16 198.767C1227.78 198.502 1227.45 198.159 1227.2 197.76C1226.95 197.361 1226.78 196.915 1226.72 196.449C1226.65 195.984 1226.68 195.509 1226.8 195.056C1226.92 194.602 1227.14 194.179 1227.44 193.813Z" fill="#FF4237"/>
<path d="M1212.88 178.187C1213.63 177.636 1214.56 177.398 1215.48 177.523C1216.39 177.648 1217.23 178.127 1217.8 178.856C1218.34 179.594 1218.59 180.507 1218.5 181.42C1218.41 182.332 1217.98 183.177 1217.3 183.791C1216.94 184.106 1216.52 184.343 1216.07 184.487C1215.61 184.63 1215.13 184.678 1214.65 184.626C1214.18 184.573 1213.72 184.423 1213.31 184.184C1212.89 183.945 1212.53 183.622 1212.25 183.236C1211.96 182.865 1211.74 182.439 1211.61 181.983C1211.48 181.527 1211.45 181.049 1211.5 180.579C1211.56 180.108 1211.72 179.654 1211.95 179.244C1212.19 178.833 1212.5 178.474 1212.88 178.187Z" fill="#FF4237"/>
<path d="M1202.57 159.577C1203.44 159.256 1204.4 159.275 1205.25 159.63C1206.11 159.984 1206.8 160.648 1207.18 161.489C1207.39 161.916 1207.51 162.381 1207.53 162.855C1207.56 163.329 1207.49 163.803 1207.32 164.249C1207.16 164.695 1206.91 165.103 1206.58 165.45C1206.26 165.797 1205.87 166.075 1205.43 166.267C1205 166.46 1204.53 166.563 1204.06 166.571C1203.58 166.579 1203.11 166.491 1202.67 166.313C1202.23 166.135 1201.83 165.87 1201.5 165.534C1201.16 165.198 1200.9 164.798 1200.72 164.358C1200.5 163.927 1200.37 163.454 1200.35 162.971C1200.32 162.487 1200.4 162.004 1200.58 161.553C1200.75 161.102 1201.02 160.693 1201.37 160.352C1201.71 160.011 1202.12 159.747 1202.57 159.577Z" fill="#FF4237"/>
<path d="M1197.27 138.824C1198.2 138.701 1199.13 138.939 1199.88 139.487C1200.63 140.036 1201.15 140.854 1201.31 141.77C1201.4 142.685 1201.16 143.603 1200.63 144.355C1200.1 145.107 1199.31 145.642 1198.42 145.863C1197.96 145.965 1197.48 145.969 1197.02 145.873C1196.55 145.778 1196.11 145.586 1195.73 145.31C1195.35 145.034 1195.02 144.68 1194.79 144.271C1194.55 143.862 1194.4 143.407 1194.35 142.936C1194.26 142.473 1194.26 141.996 1194.36 141.535C1194.46 141.073 1194.65 140.637 1194.93 140.252C1195.2 139.868 1195.55 139.543 1195.95 139.297C1196.36 139.052 1196.81 138.891 1197.27 138.824Z" fill="#FF4237"/>
<path d="M1197.28 117.498C1198.18 117.626 1199.01 118.09 1199.6 118.798C1200.18 119.506 1200.48 120.407 1200.43 121.323C1200.42 121.807 1200.32 122.285 1200.12 122.725C1199.92 123.166 1199.63 123.562 1199.27 123.887C1198.91 124.212 1198.49 124.46 1198.03 124.616C1197.57 124.771 1197.09 124.831 1196.61 124.792C1196.12 124.753 1195.65 124.615 1195.23 124.387C1194.8 124.159 1194.43 123.846 1194.12 123.467C1193.82 123.088 1193.6 122.652 1193.48 122.184C1193.35 121.717 1193.32 121.228 1193.39 120.75C1193.41 120.273 1193.53 119.806 1193.74 119.379C1193.95 118.951 1194.25 118.572 1194.62 118.266C1194.98 117.96 1195.41 117.733 1195.86 117.601C1196.32 117.469 1196.8 117.434 1197.28 117.498Z" fill="#FF4237"/>
<path d="M1202.57 96.7838C1203.44 97.1192 1204.14 97.7762 1204.53 98.6175C1204.93 99.4588 1204.98 100.419 1204.68 101.298C1204.32 102.142 1203.67 102.831 1202.85 103.238C1202.03 103.646 1201.09 103.744 1200.2 103.516C1199.75 103.386 1199.32 103.16 1198.96 102.853C1198.59 102.547 1198.3 102.167 1198.09 101.739C1197.89 101.311 1197.78 100.844 1197.76 100.369C1197.75 99.8941 1197.84 99.4218 1198.02 98.9833C1198.17 98.534 1198.4 98.1188 1198.71 97.7628C1199.02 97.4068 1199.4 97.1174 1199.83 96.9119C1200.25 96.7063 1200.72 96.589 1201.19 96.567C1201.66 96.545 1202.13 96.6187 1202.57 96.7838Z" fill="#FF4237"/>
<path d="M1212.88 78.0971C1213.63 78.6385 1214.13 79.4469 1214.29 80.3528C1214.45 81.2586 1214.25 82.1913 1213.74 82.9553C1213.25 83.7325 1212.46 84.2829 1211.57 84.4871C1210.67 84.6912 1209.72 84.5325 1208.94 84.0455C1208.51 83.8043 1208.14 83.4774 1207.84 83.0854C1207.55 82.6934 1207.34 82.2445 1207.22 81.7669C1207.11 81.2892 1207.09 80.793 1207.18 80.3091C1207.26 79.8253 1207.44 79.3642 1207.72 78.9546C1207.99 78.545 1208.34 78.1957 1208.75 77.9284C1209.16 77.6612 1209.63 77.4818 1210.11 77.4013C1210.6 77.3209 1211.09 77.3411 1211.57 77.4608C1212.05 77.5806 1212.49 77.7971 1212.88 78.0971Z" fill="#FF4237"/>
<path d="M1227.44 62.4898C1228 63.2005 1228.27 64.0971 1228.19 64.9988C1228.12 65.9006 1227.7 66.7404 1227.03 67.3492C1226.37 67.958 1225.49 68.2904 1224.59 68.2795C1223.68 68.2687 1222.81 67.9153 1222.16 67.2906C1221.83 66.9479 1221.58 66.5425 1221.42 66.0994C1221.26 65.6562 1221.19 65.1846 1221.22 64.7135C1221.24 64.2424 1221.37 63.7818 1221.58 63.3599C1221.79 62.938 1222.08 62.5638 1222.45 62.2603C1222.78 61.9309 1223.18 61.6741 1223.62 61.5061C1224.05 61.3381 1224.52 61.2626 1224.99 61.2841C1225.46 61.3057 1225.92 61.4239 1226.34 61.6314C1226.76 61.8388 1227.14 62.1311 1227.44 62.4898Z" fill="#FF4237"/>
<path d="M1245.51 51.1093C1245.91 51.9378 1245.97 52.8903 1245.68 53.7627C1245.39 54.6351 1244.76 55.3579 1243.94 55.7762C1243.12 56.1585 1242.19 56.2462 1241.3 56.0249C1240.86 55.9058 1240.43 55.698 1240.07 55.4138C1239.7 55.1296 1239.39 54.7747 1239.16 54.3701C1238.94 53.9655 1238.79 53.5193 1238.74 53.0578C1238.69 52.5964 1238.73 52.129 1238.86 51.6831C1238.98 51.2119 1239.2 50.7733 1239.51 50.3994C1239.82 50.0256 1240.21 49.7257 1240.65 49.5218C1241.08 49.302 1241.54 49.1686 1242.01 49.1296C1242.49 49.0906 1242.96 49.1466 1243.42 49.2945C1243.87 49.4423 1244.29 49.679 1244.65 49.9906C1245.01 50.3023 1245.3 50.6826 1245.51 51.1093Z" fill="#FF4237"/>
<path d="M1265.81 44.4725C1265.97 45.3762 1265.78 46.309 1265.27 47.0737C1264.78 47.8572 1264.02 48.4301 1263.13 48.6803C1262.23 48.8862 1261.28 48.7368 1260.49 48.263C1259.69 47.7893 1259.11 47.0277 1258.86 46.1365C1258.74 45.6766 1258.72 45.1973 1258.79 44.7274C1258.86 44.2575 1259.02 43.8065 1259.27 43.4013C1259.52 42.9961 1259.85 42.645 1260.23 42.369C1260.62 42.093 1261.06 41.8977 1261.52 41.7947C1261.98 41.6669 1262.46 41.635 1262.94 41.7008C1263.41 41.7666 1263.87 41.9287 1264.28 42.1773C1265.07 42.7115 1265.62 43.536 1265.81 44.4725Z" fill="#FF4237"/>
<path d="M1287.07 43.1909C1287.03 44.1126 1286.62 44.9785 1285.94 45.6038C1285.26 46.2291 1284.36 46.5644 1283.44 46.5381C1282.52 46.4915 1281.66 46.1052 1281.01 45.4545C1280.36 44.8039 1279.98 43.9355 1279.94 43.0188C1279.92 42.5414 1280.01 42.0657 1280.18 41.6223C1280.36 41.179 1280.63 40.7777 1280.97 40.4445C1281.32 40.1112 1281.72 39.8532 1282.17 39.6872C1282.62 39.5212 1283.1 39.4507 1283.57 39.4804C1284.05 39.4902 1284.52 39.5944 1284.95 39.787C1285.39 39.9796 1285.78 40.2566 1286.1 40.602C1286.43 40.9474 1286.68 41.3542 1286.85 41.7987C1287.02 42.2432 1287.09 42.7165 1287.07 43.1909Z" fill="#FF4237"/>
<path d="M1308.11 47.1117C1307.79 47.972 1307.18 48.6888 1306.37 49.1312C1305.57 49.5736 1304.63 49.7122 1303.73 49.5217C1302.84 49.2705 1302.08 48.6838 1301.62 47.8848C1301.15 47.0859 1301.01 46.1369 1301.23 45.2373C1301.34 44.7666 1301.54 44.3227 1301.82 43.9324C1302.11 43.5422 1302.47 43.2137 1302.88 42.9667C1303.3 42.7197 1303.76 42.5594 1304.24 42.4954C1304.72 42.4314 1305.2 42.4651 1305.67 42.5944C1306.14 42.7236 1306.57 42.9459 1306.95 43.2477C1307.32 43.5494 1307.64 43.9245 1307.86 44.3502C1308.09 44.776 1308.23 45.2435 1308.28 45.7247C1308.32 46.2059 1308.26 46.6907 1308.11 47.15V47.1117Z" fill="#FF4237"/>
<path d="M1327.39 56.2924C1327.04 56.8895 1326.51 57.3673 1325.89 57.665C1325.26 57.9628 1324.56 58.067 1323.87 57.9644C1323.18 57.8619 1322.54 57.5572 1322.03 57.0891C1321.51 56.6211 1321.15 56.0108 1320.99 55.3361C1320.85 54.9021 1320.8 54.4446 1320.84 53.991C1320.88 53.5375 1321.02 53.0972 1321.23 52.6966C1321.45 52.2722 1321.75 51.8977 1322.12 51.5974C1322.49 51.2972 1322.92 51.0778 1323.38 50.9534C1323.84 50.829 1324.32 50.8024 1324.79 50.8754C1325.26 50.9483 1325.71 51.1192 1326.11 51.3769C1326.52 51.6103 1326.89 51.9241 1327.17 52.2997C1327.46 52.6753 1327.67 53.1051 1327.79 53.5635C1327.91 54.022 1327.94 54.4997 1327.87 54.9685C1327.8 55.4373 1327.64 55.8875 1327.39 56.2924Z" fill="#FF4237"/>
<path d="M1343.82 69.8727C1343.15 70.4979 1342.27 70.8457 1341.35 70.8457C1340.44 70.8457 1339.56 70.4979 1338.89 69.8727C1338.23 69.2324 1337.84 68.3604 1337.81 67.4401C1337.77 66.5198 1338.1 65.6229 1338.72 64.938C1339.04 64.5904 1339.44 64.3113 1339.87 64.117C1340.31 63.9228 1340.78 63.8172 1341.25 63.8066C1341.73 63.7959 1342.21 63.8803 1342.65 64.0548C1343.09 64.2294 1343.5 64.4906 1343.84 64.8233C1344.18 65.1539 1344.44 65.5478 1344.62 65.982C1344.8 66.4162 1344.89 66.8819 1344.89 67.352C1344.89 67.8221 1344.79 68.2871 1344.61 68.7199C1344.43 69.1527 1344.16 69.5446 1343.82 69.8727Z" fill="#FF4237"/>
<path d="M1356.45 87.0868C1355.64 87.5144 1354.7 87.6179 1353.82 87.376C1352.94 87.1342 1352.19 86.5653 1351.71 85.7858C1351.24 85.0062 1351.08 84.075 1351.27 83.1826C1351.46 82.2903 1351.99 81.5042 1352.74 80.9853C1353.54 80.5577 1354.48 80.4542 1355.36 80.6961C1356.24 80.9379 1356.99 81.5068 1357.47 82.2863C1357.94 83.0659 1358.1 83.9971 1357.91 84.8895C1357.72 85.7818 1357.2 86.5679 1356.45 87.0868Z" fill="#FF4237"/>
<path d="M1364.23 106.978C1363.56 107.158 1362.84 107.135 1362.18 106.913C1361.52 106.691 1360.94 106.278 1360.51 105.728C1360.08 105.177 1359.82 104.512 1359.77 103.816C1359.71 103.12 1359.87 102.423 1360.21 101.813C1360.54 101.203 1361.06 100.706 1361.68 100.384C1362.3 100.062 1363 99.9294 1363.69 100.003C1364.38 100.076 1365.04 100.353 1365.58 100.797C1366.12 101.242 1366.51 101.835 1366.72 102.503C1366.85 102.96 1366.89 103.438 1366.84 103.911C1366.78 104.383 1366.63 104.841 1366.4 105.256C1366.17 105.672 1365.86 106.038 1365.49 106.334C1365.12 106.629 1364.69 106.848 1364.23 106.978Z" fill="#FF4237"/>
<path d="M1366.99 128.152C1366.06 128.129 1365.17 127.769 1364.49 127.139C1363.8 126.509 1363.37 125.652 1363.28 124.728C1363.25 123.799 1363.59 122.896 1364.21 122.206C1364.83 121.516 1365.7 121.09 1366.62 121.017C1367.1 120.983 1367.57 121.046 1368.02 121.203C1368.46 121.359 1368.87 121.605 1369.22 121.926C1369.57 122.247 1369.85 122.635 1370.04 123.068C1370.23 123.501 1370.33 123.968 1370.33 124.441C1370.38 124.908 1370.32 125.379 1370.17 125.824C1370.02 126.27 1369.79 126.679 1369.47 127.028C1369.16 127.376 1368.77 127.656 1368.35 127.849C1367.92 128.043 1367.46 128.145 1366.99 128.152Z" fill="#FF4237"/>
<path d="M1291.44 127.941C1291.44 129.833 1290.87 131.682 1289.82 133.254C1288.77 134.827 1287.28 136.053 1285.53 136.777C1283.78 137.5 1281.86 137.69 1280.01 137.321C1278.15 136.952 1276.45 136.041 1275.11 134.703C1273.77 133.366 1272.86 131.662 1272.49 129.807C1272.12 127.952 1272.31 126.029 1273.04 124.281C1273.76 122.534 1274.99 121.04 1276.56 119.99C1278.13 118.939 1279.98 118.378 1281.87 118.378C1284.41 118.378 1286.84 119.385 1288.63 121.179C1290.43 122.972 1291.44 125.405 1291.44 127.941Z" fill="#DDDDDD"/>
<path d="M1303.1 311.901V349.217" stroke="#FF4237" stroke-width="3" stroke-miterlimit="10" stroke-linecap="round"/>
<path d="M1321.77 330.569H1284.45" stroke="#FF4237" stroke-width="3" stroke-miterlimit="10" stroke-linecap="round"/>
<path d="M687.376 86.8571L668.326 106.251" stroke="#FF4237" stroke-width="2.19" stroke-miterlimit="10" stroke-linecap="round"/>
<path d="M687.548 106.079L668.173 87.0291" stroke="#FF4237" stroke-width="2.19" stroke-miterlimit="10" stroke-linecap="round"/>
<path d="M801.181 732.095L782.131 751.49" stroke="#FF4237" stroke-width="2.19" stroke-miterlimit="10" stroke-linecap="round"/>
<path d="M801.352 751.317L781.977 732.267" stroke="#FF4237" stroke-width="2.19" stroke-miterlimit="10" stroke-linecap="round"/>
<path d="M854.048 309.147L834.998 328.542" stroke="white" stroke-width="2.19" stroke-miterlimit="10" stroke-linecap="round"/>
<path d="M854.219 328.37L834.844 309.319" stroke="white" stroke-width="2.19" stroke-miterlimit="10" stroke-linecap="round"/>
<path d="M220.228 161.929L201.178 181.324" stroke="white" stroke-width="2.19" stroke-miterlimit="10" stroke-linecap="round"/>
<path d="M220.399 181.151L201.005 162.101" stroke="white" stroke-width="2.19" stroke-miterlimit="10" stroke-linecap="round"/>
<path opacity="0.5" d="M1104.71 694.09C1113.65 639.924 1076.98 588.769 1022.82 579.831C968.654 570.893 917.498 607.557 908.56 661.723C899.623 715.888 936.287 767.043 990.452 775.981C1044.62 784.919 1095.77 748.255 1104.71 694.09Z" stroke="#FF4237" stroke-width="0.82" stroke-miterlimit="10"/>
<path d="M1006.64 659.242V696.558" stroke="white" stroke-width="3" stroke-miterlimit="10" stroke-linecap="round"/>
<path d="M1025.31 677.909H987.99" stroke="white" stroke-width="3" stroke-miterlimit="10" stroke-linecap="round"/>
<g style="mix-blend-mode:overlay" opacity="0.5">
<path d="M851.236 493.356H663.202V681.39H851.236V493.356Z" stroke="white" stroke-miterlimit="10"/>
<path d="M694.532 493.356V681.39" stroke="white" stroke-miterlimit="10"/>
<path d="M725.88 493.356V681.39" stroke="white" stroke-miterlimit="10"/>
<path d="M757.211 493.356V681.39" stroke="white" stroke-miterlimit="10"/>
<path d="M788.559 493.356V681.39" stroke="white" stroke-miterlimit="10"/>
<path d="M819.888 493.356V681.39" stroke="white" stroke-miterlimit="10"/>
<path d="M851.236 650.042H663.202" stroke="white" stroke-miterlimit="10"/>
<path d="M851.236 618.712H663.202" stroke="white" stroke-miterlimit="10"/>
<path d="M851.236 587.364H663.202" stroke="white" stroke-miterlimit="10"/>
<path d="M851.236 556.034H663.202" stroke="white" stroke-miterlimit="10"/>
<path d="M851.236 524.686H663.202" stroke="white" stroke-miterlimit="10"/>
</g>
<path d="M749.443 666.013V637.284H720.715V666.013H749.443Z" fill="#FF4237"/>
<path d="M720.715 694.741V666.013H691.987V694.741H720.715Z" fill="#DDDDDD"/>
<path d="M-77.8809 262.134C-60.6669 226.596 -17.7084 212.251 21.3865 206.456C83.8718 197.228 147.576 200.688 208.694 216.631C258.423 229.638 312.858 250.466 358.628 227.113C396.365 207.833 414.726 163.823 421.153 121.916C427.58 80.0096 425.189 36.8025 435.938 -4.18596C446.687 -45.1744 475.53 -85.7612 517.379 -92.4364" stroke="white" stroke-width="1.56" stroke-miterlimit="10"/>
<path d="M1079.11 1009.7C1084.58 968.616 1129.91 945.319 1170.92 939.543C1211.93 933.767 1255.52 937.956 1293.06 920.416C1330.61 902.877 1355.32 866.862 1377.72 832.013C1400.11 797.164 1423.62 760.613 1459.96 740.874C1496.3 721.136 1549.68 725.994 1569.67 762.22" stroke="white" stroke-width="1.56" stroke-miterlimit="10"/>
</g>
</g>
</g>
<defs>
<clipPath id="clip0_390_18634">
<rect width="1443" height="816" fill="white" transform="translate(-1)"/>
</clipPath>
</defs>
</svg>
