<svg width="58" height="52" viewBox="0 0 58 52" fill="none" xmlns="http://www.w3.org/2000/svg">
<g clip-path="url(#clip0_601_1866)">
<path d="M17.4887 28.7134C17.0064 28.602 16.5145 28.5766 16.0673 28.4111C15.4252 28.1659 14.7894 27.8634 14.2238 27.4526C10.7184 24.9463 8.29498 21.6021 7.59869 17.3751C6.91193 13.0622 8.26948 9.20757 11.6238 6.24131C13.3025 4.74385 15.253 3.68274 17.3731 2.93059C17.7658 2.79991 18.1298 2.66606 18.7683 2.41748C17.9759 1.95255 17.3753 1.5959 16.7458 1.23606C16.7841 1.15323 16.7936 1.06722 16.835 0.955725C17.0394 0.949316 17.2502 0.885566 17.4482 0.936497C18.4448 1.13381 19.4382 1.35979 20.4316 1.58577C21.0833 1.74492 21.7668 1.87859 21.975 2.62712C22.2087 3.40751 21.7078 3.99054 21.1652 4.42385C20.4023 5.00693 19.5596 5.52312 18.72 6.01065C18.5348 6.10625 18.2313 5.95659 17.9726 5.92797C18.0012 5.66994 17.9498 5.34504 18.0838 5.18574C18.5146 4.71103 19.0221 4.33187 19.536 3.89537C19.4529 3.85716 19.4018 3.79347 19.3698 3.81895C12.7984 5.35555 8.52522 9.52607 8.46323 16.1358C8.45709 16.4544 8.47969 16.7761 8.55979 17.1042C9.48307 21.6464 11.8555 25.1882 15.8335 27.6307C16.3512 27.9491 16.9709 28.1338 17.5555 28.3726C17.5428 28.4873 17.5014 28.5987 17.4887 28.7134Z" fill="white"/>
</g>
<path d="M3.11166 42.7604C3.16112 42.8771 3.22769 42.9828 3.31138 43.0776C3.30579 43.1669 3.23856 43.2389 3.10967 43.2935C2.98079 43.3482 2.85079 43.349 2.71968 43.296C2.58857 43.243 2.49047 43.1398 2.42539 42.9864C2.277 42.6365 2.2907 42.2505 2.46647 41.8284C2.6335 41.4027 2.89928 41.022 3.26382 40.6864C3.63188 40.342 4.03686 40.076 4.47875 39.8886C6.54091 39.0139 7.88569 39.3161 8.51308 40.7952C8.67709 41.1818 8.70756 41.5781 8.60451 41.9839C8.49885 42.3835 8.31946 42.7203 8.06633 42.9942C7.81933 43.2656 7.54854 43.4637 7.25395 43.5887C7.59764 43.4429 7.93398 43.3907 8.26297 43.4322C8.59809 43.4711 8.90058 43.5782 9.17042 43.7534C9.4464 43.926 9.71875 44.1327 9.98747 44.3736C10.2597 44.6057 10.5302 44.8422 10.7989 45.083C11.0677 45.3239 11.3369 45.5319 11.6068 45.7071C11.8766 45.8823 12.173 45.992 12.4958 46.0361C12.8248 46.0775 13.1581 46.0267 13.4956 45.8835C13.6491 45.8184 13.7619 45.7344 13.834 45.6314C13.9287 45.5984 13.9969 45.6311 14.0385 45.7293C14.127 45.938 13.9565 46.1334 13.5268 46.3156C13.0972 46.4979 12.6798 46.5808 12.2746 46.5644C11.8693 46.548 11.5077 46.4552 11.1897 46.2859C10.8717 46.1167 10.5604 45.912 10.2558 45.6719C9.95988 45.4353 9.67321 45.1948 9.39575 44.9504C9.11829 44.706 8.84203 44.4901 8.56699 44.3026C8.29808 44.1125 8.00396 43.9911 7.68465 43.9382C7.36533 43.8854 7.04303 43.928 6.71775 44.0659C6.55818 44.1336 6.44194 44.0815 6.36905 43.9097C6.33781 43.836 6.33893 43.7704 6.37241 43.7127C6.40589 43.6551 6.45332 43.6133 6.51469 43.5872C7.08547 43.3451 7.46627 42.9881 7.65711 42.5161C7.84535 42.0379 7.84835 41.5841 7.66612 41.1544C7.411 40.553 7.01973 40.1939 6.49231 40.0773C5.96489 39.9607 5.39738 40.0312 4.78978 40.2889C4.18831 40.544 3.71247 40.9161 3.36225 41.405C3.01556 41.8851 2.93203 42.337 3.11166 42.7604ZM4.06632 42.0405C3.98822 41.8564 3.97567 41.6988 4.02868 41.5677C4.07909 41.4304 4.16874 41.3344 4.29762 41.2798C4.42651 41.2251 4.57055 41.2147 4.72974 41.2486L6.45182 45.3084C6.72517 45.9529 6.81979 46.5174 6.7357 47.002C6.65775 47.4841 6.37328 47.8292 5.88229 48.0375C5.39744 48.2432 4.9841 48.2845 4.64228 48.1616C4.30307 48.0448 4.05537 47.8022 3.89917 47.434C3.69871 46.9614 3.75192 46.66 4.05879 46.5299C4.13244 46.4986 4.20469 46.4897 4.27555 46.5031C4.3464 46.5165 4.41456 46.5491 4.48002 46.601C4.48559 46.7507 4.54174 46.9514 4.64848 47.203C4.75522 47.4547 4.90166 47.6207 5.08782 47.701C5.27751 47.7726 5.47362 47.7655 5.67616 47.6796C6.11805 47.4921 6.17238 47.0056 5.83916 46.22L4.06632 42.0405ZM14.2296 41.4228C14.3585 41.3681 14.4646 41.439 14.5479 41.6353C14.7405 42.0895 14.7567 42.5715 14.5963 43.0812C14.4421 43.5884 14.0428 43.9786 13.3984 44.252C12.7539 44.5253 12.1624 44.5734 11.6239 44.3964C11.0888 44.2105 10.6794 43.7831 10.3957 43.1142C10.1093 42.4391 10.0586 41.8414 10.2435 41.3213C10.4258 40.795 10.7839 40.4186 11.3178 40.1921C11.7045 40.0281 12.0311 40.0126 12.2975 40.1458C12.5614 40.2729 12.7533 40.4775 12.873 40.7599C13.0683 41.2202 13.0376 41.6857 12.7812 42.1566C12.5282 42.6188 12.1041 42.9761 11.5087 43.2286C11.7306 43.598 11.998 43.8358 12.311 43.942C12.6275 44.0394 12.973 44.0088 13.3473 43.85C13.7279 43.6886 14.0086 43.4029 14.1896 42.993C14.3741 42.5744 14.3492 42.0889 14.1149 41.5366C14.1054 41.4971 14.1437 41.4592 14.2296 41.4228ZM11.3015 42.8168L11.3366 42.8997C11.6963 42.6892 11.9739 42.4302 12.1694 42.1228C12.371 41.8128 12.3924 41.4706 12.2336 41.0962C12.1321 40.8569 12.0031 40.698 11.8467 40.6195C11.6877 40.5348 11.5131 40.5329 11.3228 40.6136C11.0344 40.7359 10.8856 40.9656 10.8764 41.3026C10.8734 41.637 11.0151 42.1417 11.3015 42.8168ZM16.073 38.4901C16.0773 38.2782 16.1654 38.1359 16.3372 38.063C16.5152 37.9875 16.6654 37.9745 16.7877 38.024L17.9085 40.6661C18.0568 41.0159 18.224 41.2564 18.41 41.3875C18.596 41.5187 18.7841 41.5439 18.9743 41.4632C19.5512 41.2185 19.5859 40.4977 19.0782 39.3009C19.0688 39.2615 19.107 39.2236 19.1929 39.1871C19.3034 39.1403 19.4276 39.2795 19.5656 39.6047C19.7868 40.1264 19.8503 40.5919 19.756 41.0013C19.6678 41.408 19.4212 41.6972 19.0162 41.8691C18.3963 42.132 17.8692 42.0333 17.435 41.573C17.4251 41.8741 17.3502 42.1412 17.2101 42.3744C17.0701 42.6076 16.8711 42.7789 16.6134 42.8883C15.5393 43.3438 14.7042 42.8689 14.1081 41.4634C13.8061 40.7515 13.7492 40.1565 13.9375 39.6783C14.1318 39.1976 14.5052 38.8401 15.0576 38.6058C15.481 38.4262 15.8195 38.3876 16.073 38.4901ZM15.5918 42.1701C15.7923 42.4037 15.9634 42.5339 16.1051 42.5607C16.2442 42.5814 16.4058 42.5526 16.59 42.4745C16.7741 42.3964 16.9254 42.1983 17.0439 41.8801C17.1659 41.5532 17.1488 41.2056 16.9926 40.8373L16.4576 39.5761C16.3353 39.2876 16.1596 39.087 15.9307 38.9741C15.7079 38.8586 15.5014 38.8412 15.3111 38.9219C15.127 39 14.9875 39.0809 14.8927 39.1645C14.7978 39.2482 14.726 39.3692 14.6773 39.5275C14.5685 39.8343 14.6703 40.356 14.9827 41.0925C15.1883 41.5773 15.3914 41.9365 15.5918 42.1701ZM21.7793 38.09C21.8898 38.0432 22.014 38.1824 22.152 38.5077C22.3524 38.9802 22.3954 39.44 22.2808 39.8869C22.1662 40.3338 21.9094 40.6418 21.5105 40.811C21.0134 41.0219 20.5796 41.0321 20.2091 40.8416C19.8387 40.6512 19.5389 40.2859 19.3098 39.7458L17.8415 36.2843C17.5057 35.4926 17.3426 34.8775 17.3521 34.439C17.3616 34.0004 17.575 33.6927 17.9924 33.5156C18.6 33.2579 19.0782 33.5402 19.427 34.3627C19.6899 34.9825 19.7781 35.5317 19.6914 36.0102C19.6108 36.4861 19.4531 36.8825 19.2182 37.1994L20.2647 39.6667C20.4131 40.0165 20.5925 40.2518 20.8031 40.3725C21.0136 40.4932 21.2354 40.5041 21.4687 40.4051C21.7019 40.3062 21.8599 40.0726 21.9427 39.7044C22.0255 39.3362 21.9328 38.836 21.6646 38.2038C21.6613 38.1618 21.6995 38.1239 21.7793 38.09ZM19.0351 34.5398C18.7851 33.9506 18.5129 33.7185 18.2183 33.8434C18.1446 33.8747 18.0968 33.9239 18.0746 33.9913C18.0586 34.056 18.0769 34.1931 18.1296 34.4025C18.2019 34.7266 18.5101 35.5301 19.0542 36.8128C19.4241 36.1996 19.4177 35.442 19.0351 34.5398ZM25.2996 31.2851L25.5719 31.1587C26.624 30.7197 27.5249 30.5729 28.2745 30.7184C29.0242 30.8639 29.5526 31.2987 29.8598 32.023C30.167 32.7472 30.1746 33.4138 29.8826 34.0228C29.5879 34.6258 29.057 35.0899 28.2899 35.4153C27.94 35.5637 27.5752 35.6425 27.1952 35.6516L27.7731 37.0141C28.0777 37.7321 28.2139 38.3008 28.1817 38.7199C28.1521 39.1453 27.9225 39.449 27.4929 39.6313C27.2597 39.7302 27.037 39.7088 26.8248 39.5671C26.6126 39.4253 26.4297 39.1734 26.2761 38.8113C25.9923 38.1424 26.0558 37.3189 26.4665 36.3408L24.7796 32.3638C24.5616 32.6011 24.4062 32.8408 24.3134 33.083C24.218 33.319 24.2028 33.5137 24.2679 33.6671C24.333 33.8205 24.4073 33.9447 24.491 34.0395C24.4854 34.1288 24.4182 34.2008 24.2893 34.2554C24.1604 34.3101 24.0304 34.3109 23.8993 34.2579C23.7682 34.2049 23.6701 34.1017 23.605 33.9483C23.4827 33.6598 23.5059 33.3132 23.6746 32.9086C23.8433 32.5039 24.1309 32.1321 24.5375 31.793L24.3891 31.4432C24.311 31.2591 24.2984 31.1015 24.3514 30.9704C24.4019 30.8331 24.4946 30.7359 24.6296 30.6786C24.7646 30.6213 24.8994 30.6148 25.0341 30.6591L25.2996 31.2851ZM28.0132 34.9679C28.5962 34.7206 28.9669 34.3823 29.1252 33.9531C29.2809 33.5177 29.2364 33.0116 28.9916 32.4347C28.7443 31.8516 28.34 31.4872 27.7785 31.3416C27.2206 31.1872 26.5519 31.2753 25.7724 31.6059C25.6743 31.6476 25.5922 31.6932 25.5264 31.7429L26.979 35.1675C27.3493 35.1698 27.694 35.1032 28.0132 34.9679ZM27.3314 39.2761C27.4603 39.2215 27.4824 39.0347 27.3978 38.7157C27.3132 38.3968 27.064 37.7494 26.65 36.7735C26.4408 37.4923 26.4468 38.1125 26.6681 38.6342C26.8893 39.1559 27.1105 39.3699 27.3314 39.2761ZM32.0123 34.4773L32.6332 35.941C32.6083 36.053 32.5191 36.1415 32.3656 36.2066C32.2122 36.2717 32.0699 36.2777 31.9388 36.2247C31.8051 36.1656 31.6992 36.0439 31.6211 35.8598L30.1372 32.3615C30.1622 32.2495 30.2513 32.161 30.4048 32.0959C30.5582 32.0309 30.7018 32.0279 30.8355 32.087C30.9666 32.14 31.0712 32.2586 31.1493 32.4427L31.4461 33.1424C31.4301 32.2512 31.6922 31.6911 32.2323 31.462C32.619 31.298 32.9455 31.2825 33.212 31.4157C33.4759 31.5428 33.6678 31.7474 33.7875 32.0297C33.8526 32.1832 33.8586 32.3255 33.8056 32.4566C33.7526 32.5877 33.6831 32.6715 33.5972 32.7079C33.4376 32.7756 33.3177 32.783 33.2373 32.7302C33.2351 32.6225 33.1976 32.4828 33.1247 32.3109C33.0518 32.1391 32.9271 32.0073 32.7506 31.9156C32.5741 31.8239 32.403 31.8132 32.2373 31.8835C31.9489 32.0058 31.8 32.3804 31.7906 33.0071C31.7848 33.6251 31.8587 34.1152 32.0123 34.4773ZM35.5111 29.93C36.0573 29.6983 36.5791 29.6906 37.0764 29.9069C37.5737 30.1232 37.9551 30.5444 38.2206 31.1704C38.4836 31.7903 38.5396 32.3748 38.3887 32.924C38.244 33.4706 37.9016 33.8584 37.3615 34.0875C36.8214 34.3166 36.2922 34.3238 35.7739 34.1092C35.2592 33.8858 34.8625 33.4457 34.5839 32.789C34.3028 32.1262 34.2511 31.5434 34.4289 31.0407C34.6103 30.5293 34.971 30.1591 35.5111 29.93ZM35.6726 30.2851C35.5069 30.3554 35.3809 30.4595 35.2946 30.5975C35.2118 30.7268 35.203 30.8681 35.2681 31.0215C35.4347 31.4143 35.7482 31.7267 36.2087 31.9586C36.6665 32.1844 37.1319 32.2658 37.6049 32.2028C37.5182 31.9644 37.4398 31.7623 37.3695 31.5966C37.0987 30.9583 36.8425 30.542 36.6007 30.3477C36.3564 30.1472 36.047 30.1263 35.6726 30.2851ZM35.4546 32.4088C35.7202 33.0349 35.9869 33.4503 36.2549 33.6553C36.529 33.8577 36.844 33.8834 37.2 33.7324C37.4455 33.6282 37.6067 33.4875 37.6835 33.31C37.7638 33.1239 37.7687 32.8792 37.698 32.5761C37.2627 32.6594 36.8176 32.6345 36.3629 32.5015C35.9144 32.3659 35.5418 32.1619 35.2451 31.8894C35.2833 31.9963 35.3531 32.1695 35.4546 32.4088ZM38.2228 29.4424C38.1447 29.2582 38.1322 29.1006 38.1852 28.9695C38.2356 28.8323 38.3314 28.7337 38.4725 28.6738C38.6137 28.614 38.7454 28.6088 38.8678 28.6582L41.0272 33.7492C41.0983 33.7118 41.2136 33.6593 41.3732 33.5916C41.5327 33.5239 41.6412 33.5576 41.6984 33.6926L41.7018 33.8541C41.4624 33.9556 41.2857 34.0342 41.1717 34.0898L41.2537 34.2831C41.5036 34.8723 41.5744 35.3891 41.4659 35.8334C41.3575 36.2776 41.0915 36.5896 40.668 36.7692C40.4225 36.8734 40.1708 36.886 39.9129 36.8071C39.6549 36.7283 39.4518 36.5139 39.3034 36.1641C39.155 35.8142 39.172 35.4703 39.3545 35.1322C39.5308 34.7967 39.8265 34.4866 40.2417 34.2019L38.2228 29.4424ZM40.4973 36.418C40.6937 36.3347 40.8059 36.1894 40.8338 35.982C40.8556 35.7772 40.7727 35.4539 40.5853 35.012L40.39 34.5517C39.7729 35.009 39.5711 35.4893 39.7846 35.9925C39.959 36.4037 40.1966 36.5456 40.4973 36.418ZM37.424 27.4567C37.2754 27.3966 37.1685 27.2898 37.1035 27.1364C37.0384 26.9829 37.0359 26.8319 37.096 26.6833C37.1534 26.5286 37.2589 26.4187 37.4123 26.3536C37.5658 26.2885 37.7181 26.2891 37.8693 26.3553C38.024 26.4128 38.1339 26.5183 38.199 26.6717C38.2641 26.8251 38.2635 26.9774 38.1973 27.1286C38.1372 27.2772 38.0304 27.3841 37.877 27.4491C37.7236 27.5142 37.5726 27.5167 37.424 27.4567ZM44.5718 28.5525C44.7007 28.4978 44.8068 28.5687 44.8901 28.7651C45.0827 29.2192 45.0989 29.7012 44.9385 30.2109C44.7843 30.7181 44.385 31.1083 43.7406 31.3817C43.0962 31.655 42.5047 31.7032 41.9661 31.5261C41.4311 31.3402 41.0216 30.9128 40.7379 30.2439C40.4515 29.5688 40.4008 28.9711 40.5857 28.451C40.768 27.9247 41.1261 27.5483 41.66 27.3218C42.0467 27.1578 42.3733 27.1424 42.6398 27.2755C42.9037 27.4026 43.0955 27.6072 43.2152 27.8896C43.4105 28.3499 43.3799 28.8155 43.1234 29.2863C42.8704 29.7485 42.4463 30.1058 41.851 30.3583C42.0728 30.7277 42.3402 30.9655 42.6532 31.0717C42.9697 31.1691 43.3152 31.1385 43.6896 30.9797C44.0701 30.8183 44.3508 30.5326 44.5318 30.1228C44.7163 29.7041 44.6914 29.2186 44.4571 28.6663C44.4477 28.6269 44.4859 28.5889 44.5718 28.5525ZM41.6437 29.9466L41.6788 30.0294C42.0385 29.8189 42.3161 29.56 42.5116 29.2525C42.7132 28.9425 42.7346 28.6003 42.5758 28.226C42.4743 27.9866 42.3453 27.8277 42.1889 27.7492C42.0299 27.6646 41.8553 27.6626 41.665 27.7433C41.3766 27.8657 41.2278 28.0953 41.2187 28.4323C41.2157 28.7667 41.3573 29.2714 41.6437 29.9466ZM48.3896 27.1503C48.5185 27.0956 48.6207 27.1573 48.6962 27.3353C48.7717 27.5133 48.8104 27.7069 48.8122 27.9161C48.8141 28.1253 48.7809 28.3458 48.7126 28.5775C48.6505 28.8066 48.517 29.0298 48.3122 29.247C48.1136 29.4616 47.8578 29.6353 47.5448 29.768C46.8574 30.0596 46.2444 30.1169 45.7058 29.9398C45.1708 29.754 44.7614 29.3266 44.4776 28.6576C44.1913 27.9825 44.1405 27.3848 44.3254 26.8647C44.5077 26.3384 44.8658 25.962 45.3998 25.7355C45.7864 25.5715 46.113 25.5561 46.3795 25.6892C46.6434 25.8163 46.8352 26.021 46.955 26.3033C47.0201 26.4567 47.0261 26.599 46.9731 26.7301C46.9201 26.8612 46.8506 26.945 46.7647 26.9814C46.6051 27.0491 46.4852 27.0565 46.4048 27.0037C46.4026 26.896 46.365 26.7563 46.2921 26.5844C46.2193 26.4126 46.0946 26.2808 45.9181 26.1891C45.7416 26.0974 45.5705 26.0867 45.4048 26.157C45.1163 26.2794 44.9675 26.509 44.9584 26.846C44.9554 27.1804 45.0828 27.6514 45.3405 28.259C45.5956 28.8605 45.8971 29.2468 46.2448 29.4179C46.5987 29.5864 46.9874 29.5808 47.4109 29.4012C47.8344 29.2216 48.1357 28.9417 48.3148 28.5616C48.4913 28.1753 48.478 27.7428 48.275 27.2641C48.2655 27.2247 48.3037 27.1867 48.3896 27.1503ZM46.959 24.1291C46.8809 23.945 46.8684 23.7873 46.9214 23.6562C46.9718 23.519 47.0676 23.4204 47.2087 23.3605C47.3499 23.3007 47.4817 23.2955 47.604 23.3449L48.182 24.7074L49.4432 24.1725C49.5721 24.1178 49.6653 24.1072 49.723 24.1407C49.7868 24.1716 49.8434 24.2453 49.8929 24.3619L48.3186 25.0297L49.3027 27.3496C49.4459 27.6871 49.6516 27.9076 49.92 28.011C50.1945 28.1119 50.4576 28.1089 50.7092 28.0022C51.0897 27.8408 51.3091 27.5812 51.3673 27.2233C51.4255 26.8655 51.3206 26.3705 51.0524 25.7384C51.0491 25.6964 51.0873 25.6584 51.1671 25.6246C51.2776 25.5777 51.4018 25.7169 51.5398 26.0422C51.7506 26.5393 51.7992 27.0039 51.6856 27.4359C51.5781 27.8653 51.2665 28.1894 50.751 28.4081C50.2355 28.6267 49.7701 28.6648 49.3548 28.5224C48.9395 28.3799 48.6186 28.0417 48.3921 27.5077L46.959 24.1291ZM52.8949 25.2828C52.6129 25.301 52.3297 25.3161 52.0451 25.3282C51.7641 25.3315 51.503 25.2793 51.2618 25.1716C51.0206 25.0639 50.8414 24.872 50.7243 24.5958C50.6045 24.3135 50.6371 24.0318 50.822 23.7506C51.0042 23.4632 51.3409 23.2155 51.8319 23.0072C52.329 22.7963 52.7521 22.7182 53.1012 22.7729C53.4564 22.825 53.6821 22.9646 53.7785 23.1917C53.8253 23.3022 53.8201 23.4094 53.7628 23.5133C53.7117 23.6147 53.6462 23.6823 53.5664 23.7161C53.413 23.7812 53.2961 23.7874 53.2158 23.7345C53.2344 23.6759 53.2176 23.5853 53.1656 23.4625C53.1109 23.3337 52.9663 23.2574 52.7318 23.2338C52.4973 23.2101 52.2634 23.2478 52.0302 23.3467C51.797 23.4456 51.6219 23.5706 51.5049 23.7216C51.3879 23.8726 51.3671 24.0371 51.4426 24.2151C51.5155 24.3869 51.6652 24.5008 51.8918 24.5568C52.1244 24.6102 52.3817 24.6278 52.6636 24.6096C52.9517 24.5888 53.2393 24.5754 53.5265 24.5695C53.8198 24.561 54.0914 24.6123 54.3413 24.7235C54.5948 24.826 54.7775 25.0092 54.8895 25.2731C55.0561 25.6659 55.0092 26.0334 54.7488 26.3756C54.4919 26.709 54.0843 26.9942 53.5258 27.2311C52.9734 27.4654 52.4546 27.4972 51.9694 27.3264C51.4878 27.1469 51.1454 26.8178 50.9423 26.3391C50.8694 26.1672 50.8459 26.0179 50.8718 25.8911C50.8976 25.7642 50.9535 25.6826 51.0395 25.6461C51.199 25.5785 51.3028 25.567 51.3508 25.6118L51.3809 25.6317C51.3831 25.7393 51.4129 25.8607 51.4702 25.9957C51.6446 26.4069 51.9087 26.6968 52.2626 26.8653C52.6165 27.0338 53.0052 27.0282 53.4287 26.8486C54.0793 26.5727 54.31 26.2032 54.1209 25.7403C53.9725 25.3905 53.5638 25.238 52.8949 25.2828Z" fill="white"/>
<defs>
<clipPath id="clip0_601_1866">
<rect width="27.6098" height="13.2582" fill="white" transform="translate(6 27.4424) rotate(-83.6871)"/>
</clipPath>
</defs>
</svg>
