<svg width="187" height="47" viewBox="0 0 187 47" fill="none" xmlns="http://www.w3.org/2000/svg">
<g opacity="0.3">
<g clip-path="url(#clip0_400_2792)">
<path d="M39.9778 2.55814C40.2322 2.64773 40.4539 2.81161 40.6141 3.02858C40.7744 3.24554 40.8659 3.50561 40.8768 3.77514C41.015 5.21447 41.0739 6.66033 41.0533 8.10614C41.0381 8.7694 41.0228 9.43266 40.9787 10.0959C40.7292 9.99248 40.4934 9.88904 40.2424 9.79168C39.6096 9.54219 38.9905 9.30641 38.3561 9.08431C38.3713 8.74659 38.3866 8.42255 38.3866 8.08332C38.4002 7.00779 38.3713 5.91706 38.2831 4.81263C37.2517 4.4886 36.1762 4.19348 35.0885 3.92878C33.7193 3.60476 32.3502 3.33855 30.9628 3.14687C30.1824 3.04494 29.4309 2.95518 28.7098 2.88216C27.9888 2.80914 27.2205 2.76503 26.4401 2.73004C25.8316 2.71483 25.2612 2.70113 24.6435 2.70113L23.7445 2.71483C23.4783 2.71483 23.1695 2.73004 22.8454 2.73004C22.065 2.76046 21.3136 2.81827 20.5758 2.88216C19.8379 2.94606 19.1032 3.04494 18.3228 3.14687C16.9536 3.33855 15.5678 3.60324 14.1971 3.92878C13.1064 4.19348 12.0461 4.4886 11.0025 4.81263C10.823 7.23426 10.8873 9.6678 11.1942 12.0766C11.3571 13.4241 11.5932 14.7617 11.9016 16.0836C12.078 16.8351 12.2849 17.5866 12.5101 18.3076L12.5253 18.367L12.539 18.4263L12.5542 18.4856L12.5831 18.5434L12.5983 18.6028L12.6135 18.6621L12.6287 18.7214L12.6865 18.8827V18.8979L12.7017 18.9557L12.8052 19.2356L12.8189 19.2949L12.9087 19.5307L12.9223 19.5748C13.3774 20.8941 13.904 22.1876 14.4999 23.4495L14.5288 23.4936L14.544 23.5392L14.5577 23.5681L14.5881 23.6122L14.6018 23.6563L14.617 23.7005L14.6459 23.7294C14.868 24.1857 15.1023 24.6421 15.3396 25.0985C15.5161 25.3936 15.6773 25.707 15.84 25.9823C16.0317 26.3221 16.2087 26.6167 16.371 26.8662C16.8715 27.677 17.4009 28.4726 17.9622 29.2393C18.5236 30.0061 19.0956 30.7423 19.7299 31.4786C19.9662 31.7585 20.2314 32.0531 20.5255 32.3625C20.8055 32.6667 21.0701 32.971 21.3212 33.2311C21.9692 33.8944 22.6461 34.5287 23.3246 35.1464L23.6045 35.3822C23.4128 35.5343 23.2212 35.6864 23.0158 35.8385C22.4849 36.2356 21.9403 36.6189 21.3942 37.0023C18.4505 34.3634 15.918 31.2992 13.8807 27.9113V27.8961L13.8655 27.8824L13.8503 27.8672C13.7332 27.6755 13.6297 27.4838 13.5262 27.3226C13.3498 26.9985 13.1581 26.673 12.9968 26.3642C12.51 25.4803 12.0674 24.5676 11.6415 23.6092C11.2155 22.6508 10.8458 21.7091 10.5066 20.766C10.0327 19.4327 9.62948 18.0754 9.29867 16.6997C8.29781 12.467 7.99928 8.09858 8.41489 3.76905C8.42735 3.49912 8.52117 3.23928 8.68408 3.02369C8.84699 2.80811 9.07137 2.64687 9.32764 2.56118C10.7272 2.08959 12.1571 1.67733 13.6008 1.32288C15.0156 0.998856 16.4729 0.714385 17.9622 0.498367C18.7228 0.394922 19.5231 0.306691 20.3628 0.233671C21.1736 0.15913 21.9692 0.101321 22.7496 0.0708963C23.0447 0.0708963 23.3581 0.0556875 23.6928 0.0556875L24.6512 0.0419922L25.6081 0.0556875C25.9473 0.0556875 26.2713 0.0708963 26.5512 0.0708963C27.3468 0.101321 28.1424 0.15913 28.9533 0.233671C29.793 0.306691 30.5886 0.394922 31.3401 0.498367C32.8416 0.718948 34.3005 0.998856 35.7152 1.32288C37.1452 1.67733 38.5736 2.08351 39.9884 2.56118L39.9778 2.55814ZM31.3431 29.2409C31.874 28.4894 32.408 27.7196 32.8902 26.927C33.0567 26.6281 33.3297 26.403 33.6548 26.2964C33.9799 26.1898 34.3332 26.2097 34.6443 26.352C37.2044 27.5757 39.5285 29.2417 41.5097 31.2733C41.7414 31.4869 41.8906 31.7754 41.9309 32.0881C41.9712 32.4007 41.9002 32.7176 41.7303 32.9831C41.318 33.6312 40.8616 34.3081 40.4053 34.9714C39.9489 35.6347 39.4468 36.2827 38.9616 36.9019C38.6071 37.3583 38.2237 37.8298 37.8115 38.3014C37.4586 38.7137 37.06 39.1701 36.6189 39.6569C35.9997 40.3353 35.4019 40.953 34.7934 41.5569H34.7781C34.1894 42.1471 33.5612 42.7222 32.907 43.2957C32.714 43.4837 32.4692 43.6095 32.204 43.657C31.9388 43.7044 31.6654 43.6713 31.4192 43.5619C29.4799 42.6717 27.6128 41.6321 25.8347 40.4525C26.0705 40.276 26.3063 40.0995 26.5421 39.9079C27.0425 39.5093 27.5446 39.1123 28.0147 38.6909C29.2163 39.4546 30.4612 40.1479 31.7432 40.7674C32.1402 40.3992 32.5236 40.0311 32.9222 39.6477C33.5398 39.0392 34.1148 38.4551 34.6458 37.8648C34.9987 37.4967 35.3668 37.0555 35.7806 36.5839C36.1335 36.1565 36.5017 35.7138 36.8562 35.2437C37.3415 34.6535 37.7841 34.0495 38.2116 33.4304C38.4473 33.1261 38.668 32.7823 38.8885 32.4583C38.2254 31.8225 37.5161 31.2368 36.7664 30.7058C36.0563 30.1909 35.3134 29.7229 34.5424 29.3047C34.2031 29.8205 33.8501 30.3225 33.4957 30.8077C32.8781 31.6627 32.2437 32.4583 31.5957 33.225C31.3006 33.5627 31.0206 33.8731 30.7559 34.1682C30.6373 34.3203 30.5049 34.4481 30.3726 34.5941L30.3574 34.6093L30.3437 34.6246L30.3285 34.6383L30.3132 34.6535L30.2996 34.6687L30.2843 34.6839L30.2691 34.6976L30.2402 34.728V34.7417C28.8334 36.2235 27.322 37.6022 25.7176 38.8673C23.293 40.729 20.6628 42.3062 17.8786 43.568C17.6255 43.6815 17.3435 43.7141 17.0712 43.6612C16.7989 43.6084 16.5496 43.4728 16.3573 43.2729C15.7078 42.7131 15.1038 42.138 14.4999 41.563C13.8914 40.9743 13.292 40.346 12.6744 39.6629C12.218 39.1761 11.8209 38.7198 11.4665 38.3075C11.0694 37.8359 10.6861 37.3643 10.3179 36.908C9.83114 36.2751 9.35957 35.6408 8.88798 34.9775C8.41639 34.3142 7.97524 33.6373 7.56298 32.9892C7.23743 32.4735 6.89966 31.9243 6.56042 31.3539C6.25617 30.794 5.94127 30.2342 5.64767 29.6805C5.26584 28.9731 4.91142 28.2505 4.57218 27.5295C4.23294 26.8084 3.93935 26.0843 3.63053 25.3328C3.07071 23.9636 2.58392 22.5641 2.15645 21.1341C1.72898 19.7041 1.37605 18.262 1.09157 16.8031C1.0362 16.5344 1.06608 16.2551 1.17707 16.0042C1.28807 15.7533 1.47461 15.5433 1.7107 15.4036C3.42601 14.1843 5.23365 13.1004 7.11722 12.1618C7.19024 12.8692 7.27997 13.5613 7.39711 14.2535C7.42601 14.4893 7.47013 14.7251 7.51425 14.9609C6.26381 15.6149 5.05379 16.3434 3.89066 17.1424C4.12645 18.2468 4.40635 19.3223 4.71516 20.3689C5.11373 21.7244 5.58537 23.0494 6.10108 24.3242C6.38099 25.0163 6.67457 25.7085 6.9986 26.4007C7.32263 27.0929 7.64815 27.7698 8.00108 28.4194C8.28099 28.9655 8.57614 29.4843 8.87127 30.0106C9.16487 30.4974 9.47976 31.0131 9.81291 31.5577C10.2267 32.2058 10.6389 32.8401 11.0664 33.4289C11.4939 34.0176 11.9503 34.6459 12.4218 35.2422C12.79 35.7123 13.1429 36.1549 13.5111 36.5824C13.9096 37.054 14.293 37.4952 14.6307 37.8633C15.1768 38.4535 15.7504 39.0423 16.3695 39.6462C16.7529 40.0296 17.1514 40.3977 17.5333 40.7522C19.7501 39.6858 21.8531 38.3973 23.8099 36.9064C26.6779 34.7316 29.2141 32.1509 31.3386 29.2454L31.3431 29.2409ZM47.5658 15.3975C47.801 15.5387 47.9877 15.7484 48.1007 15.9984C48.2138 16.2485 48.248 16.5271 48.1986 16.797C47.9035 18.2559 47.5505 19.6996 47.1231 21.128C46.6956 22.5565 46.2103 23.9576 45.6642 25.3267C45.6088 25.4633 45.5289 25.5886 45.4284 25.6964C45.1972 25.9643 44.8699 26.1306 44.5172 26.159C44.1644 26.1875 43.8147 26.0759 43.5436 25.8485C42.548 24.9819 41.4944 24.1844 40.39 23.4616C39.3049 22.7518 38.1724 22.1169 37.0006 21.5616C36.6933 21.423 36.4489 21.1744 36.3155 20.8648C36.1821 20.5552 36.1693 20.2068 36.2796 19.8882C36.7203 18.6484 37.089 17.3841 37.384 16.1018C37.5164 15.6013 37.6198 15.0993 37.7232 14.5806C38.0625 14.7129 38.3866 14.8468 38.7258 14.9928C39.2263 15.2149 39.7267 15.4492 40.2272 15.6865C40.1542 16.0394 40.0751 16.3787 39.9914 16.7179C39.7572 17.7052 39.491 18.6956 39.1822 19.6646C40.0949 20.1362 40.9939 20.6656 41.8626 21.2254C42.5258 21.6681 43.1891 22.1381 43.8235 22.6249C44.0882 21.8887 44.3391 21.1372 44.5597 20.372C44.8838 19.3254 45.1485 18.2422 45.3995 17.1454C43.466 15.8234 41.4082 14.6933 39.2552 13.7713C37.9291 13.1981 36.5715 12.7009 35.1889 12.282C33.9255 11.9004 32.6415 11.5906 31.3431 11.354C30.4304 11.1927 29.4872 11.0604 28.5288 10.957C27.5704 10.8535 26.6288 10.7942 25.6856 10.7653L25.1562 10.7501H24.1248L23.6091 10.7653C22.6659 10.7942 21.7075 10.8535 20.7644 10.957C19.8212 11.0604 18.8643 11.1927 17.9364 11.354C16.654 11.5898 15.373 11.9138 14.0906 12.282C13.6038 12.4341 13.1186 12.5862 12.6318 12.7536C12.5876 12.4737 12.5435 12.209 12.5146 11.929C12.4264 11.2962 12.3625 10.677 12.323 10.0427C16.2981 8.72843 20.4584 8.06073 24.6451 8.06506C29.8239 8.07217 34.9522 9.08265 39.7465 11.0406C42.5116 12.1928 45.1364 13.656 47.5703 15.402L47.5658 15.3975ZM23.0189 27.0518C22.7983 26.7719 22.6066 26.5209 22.4301 26.3003C21.0282 24.381 19.8378 22.3158 18.8796 20.1407C18.7472 19.8471 18.6134 19.552 18.4962 19.2569C18.3791 18.9618 18.2893 18.7123 18.192 18.4324C18.1498 18.3351 18.1201 18.2329 18.1037 18.1281C18.0723 17.9549 18.0757 17.7771 18.1138 17.6052C18.1518 17.4332 18.2236 17.2706 18.3252 17.1267C18.4267 16.9829 18.5558 16.8607 18.7051 16.7672C18.8543 16.6738 19.0207 16.611 19.1944 16.5825C19.4744 16.5232 19.8029 16.4791 20.1376 16.4304L21.0944 16.2965C21.6847 16.2387 22.2735 16.1946 22.8774 16.1444C23.4813 16.0942 24.0944 16.1003 24.6466 16.1003C25.1988 16.1003 25.7951 16.114 26.428 16.1444C27.0365 16.1885 27.6222 16.2326 28.1972 16.2965L29.154 16.4304C29.5085 16.4745 29.8173 16.5186 30.1125 16.5825C30.1877 16.5946 30.2615 16.614 30.333 16.6403C30.6664 16.7607 30.9388 17.008 31.0907 17.3283C31.2425 17.6486 31.2616 18.0159 31.1438 18.3502C31.0252 18.6545 30.908 18.9679 30.7894 19.263C30.6707 19.5581 30.5536 19.8532 30.4212 20.1468C29.9426 21.231 29.4064 22.2887 28.8148 23.3156C28.2205 24.3498 27.5663 25.3485 26.8554 26.3064C26.6344 26.5995 26.4432 26.85 26.2819 27.0579C26.0309 27.3621 25.8392 27.6177 25.6734 27.7942C25.6215 27.86 25.5618 27.9193 25.4955 27.9706C25.3617 28.0833 25.2067 28.1683 25.0397 28.2205C24.8728 28.2727 24.6971 28.2912 24.5229 28.2747C24.3487 28.2583 24.1795 28.2074 24.0252 28.1249C23.871 28.0423 23.7347 27.9299 23.6243 27.7942C23.4038 27.5432 23.2121 27.3073 23.0158 27.0579L23.0189 27.0518Z" fill="white"/>
</g>
<path d="M62.5102 19.1941C63.4527 17.7279 65.1109 16.9948 67.4847 16.9948V20.1104C67.2054 20.0581 66.9524 20.0319 66.7254 20.0319C65.4513 20.0319 64.4563 20.4071 63.7407 21.1577C63.0251 21.8908 62.6673 22.9555 62.6673 24.3519V31.133H59.3945V17.1519H62.5102V19.1941Z" fill="white"/>
<path d="M83.2764 24.221C83.2764 24.4479 83.259 24.7708 83.2241 25.1897H72.2539C72.4459 26.2195 72.9433 27.0399 73.7463 27.6508C74.5666 28.2442 75.579 28.541 76.7833 28.541C78.3194 28.541 79.5848 28.0348 80.5797 27.0224L82.3339 29.0384C81.7055 29.789 80.9114 30.3562 79.9513 30.7402C78.9914 31.1242 77.9092 31.3162 76.7048 31.3162C75.1688 31.3162 73.8161 31.0108 72.6466 30.3999C71.4772 29.789 70.5695 28.9424 69.9237 27.8602C69.2953 26.7606 68.9812 25.5213 68.9812 24.1424C68.9812 22.781 69.2866 21.5591 69.8975 20.477C70.5259 19.3773 71.3899 18.5221 72.4895 17.9111C73.5892 17.3002 74.8284 16.9948 76.2073 16.9948C77.5688 16.9948 78.7819 17.3002 79.8466 17.9111C80.9288 18.5046 81.7666 19.3511 82.3601 20.4508C82.971 21.533 83.2764 22.7897 83.2764 24.221ZM76.2073 19.613C75.1601 19.613 74.2699 19.9271 73.5368 20.5555C72.8212 21.1664 72.3848 21.9868 72.2277 23.0166H80.1608C80.0212 22.0042 79.5935 21.1839 78.8779 20.5555C78.1623 19.9271 77.2721 19.613 76.2073 19.613Z" fill="white"/>
<path d="M90.7401 31.3162C89.6056 31.3162 88.4972 31.1679 87.415 30.8711C86.3328 30.5744 85.4688 30.1991 84.823 29.7453L86.0797 27.2581C86.7081 27.677 87.4586 28.0173 88.3314 28.2791C89.2216 28.5235 90.0943 28.6457 90.9496 28.6457C92.9045 28.6457 93.8819 28.1308 93.8819 27.101C93.8819 26.6122 93.6288 26.2719 93.1226 26.0799C92.6339 25.8879 91.8397 25.7046 90.7401 25.5301C89.5881 25.3555 88.6456 25.1548 87.9125 24.9279C87.1968 24.701 86.5685 24.3082 86.0274 23.7497C85.5037 23.1737 85.2419 22.3795 85.2419 21.3671C85.2419 20.0406 85.7917 18.9846 86.8914 18.1991C88.0085 17.3962 89.5096 16.9948 91.3946 16.9948C92.3546 16.9948 93.3146 17.1082 94.2746 17.3351C95.2346 17.5446 96.0201 17.8326 96.631 18.1991L95.3743 20.6864C94.1874 19.9882 92.8521 19.6391 91.3685 19.6391C90.4085 19.6391 89.6754 19.7875 89.1692 20.0842C88.6805 20.3635 88.4361 20.7388 88.4361 21.2101C88.4361 21.7337 88.6979 22.109 89.2216 22.3359C89.7626 22.5453 90.5917 22.7461 91.7088 22.9381C92.8259 23.1126 93.7423 23.3133 94.4579 23.5402C95.1736 23.7671 95.7845 24.1511 96.2906 24.6922C96.8143 25.2333 97.0761 26.0013 97.0761 26.9962C97.0761 28.3053 96.5088 29.3526 95.3743 30.1381C94.2397 30.9235 92.695 31.3162 90.7401 31.3162Z" fill="white"/>
<path d="M113.038 24.221C113.038 24.4479 113.02 24.7708 112.985 25.1897H102.015C102.207 26.2195 102.705 27.0399 103.508 27.6508C104.328 28.2442 105.34 28.541 106.545 28.541C108.081 28.541 109.346 28.0348 110.341 27.0224L112.095 29.0384C111.467 29.789 110.673 30.3562 109.713 30.7402C108.753 31.1242 107.671 31.3162 106.466 31.3162C104.93 31.3162 103.577 31.0108 102.408 30.3999C101.239 29.789 100.331 28.9424 99.6851 27.8602C99.0567 26.7606 98.7425 25.5213 98.7425 24.1424C98.7425 22.781 99.048 21.5591 99.6589 20.477C100.287 19.3773 101.151 18.5221 102.251 17.9111C103.351 17.3002 104.59 16.9948 105.969 16.9948C107.33 16.9948 108.543 17.3002 109.608 17.9111C110.69 18.5046 111.528 19.3511 112.121 20.4508C112.732 21.533 113.038 22.7897 113.038 24.221ZM105.969 19.613C104.921 19.613 104.031 19.9271 103.298 20.5555C102.583 21.1664 102.146 21.9868 101.989 23.0166H109.922C109.783 22.0042 109.355 21.1839 108.639 20.5555C107.924 19.9271 107.033 19.613 105.969 19.613Z" fill="white"/>
<path d="M122.596 31.3162C121.147 31.3162 119.847 31.0108 118.695 30.3999C117.543 29.789 116.644 28.9424 115.998 27.8602C115.352 26.7606 115.029 25.5213 115.029 24.1424C115.029 22.7635 115.352 21.533 115.998 20.4508C116.644 19.3686 117.534 18.5221 118.669 17.9111C119.821 17.3002 121.13 16.9948 122.596 16.9948C123.975 16.9948 125.179 17.2741 126.209 17.8326C127.256 18.3911 128.042 19.1941 128.565 20.2413L126.052 21.7075C125.651 21.0617 125.144 20.5817 124.533 20.2675C123.94 19.9359 123.285 19.7701 122.57 19.7701C121.348 19.7701 120.336 20.1715 119.533 20.9744C118.73 21.7599 118.328 22.8159 118.328 24.1424C118.328 25.469 118.721 26.5337 119.507 27.3366C120.309 28.1221 121.331 28.5148 122.57 28.5148C123.285 28.5148 123.94 28.3577 124.533 28.0435C125.144 27.7119 125.651 27.2231 126.052 26.5773L128.565 28.0435C128.024 29.0908 127.23 29.9024 126.183 30.4784C125.153 31.037 123.957 31.3162 122.596 31.3162Z" fill="white"/>
<path d="M144.931 17.1519V31.133H141.815V29.3526C141.291 29.981 140.637 30.4697 139.851 30.8188C139.066 31.1504 138.219 31.3162 137.312 31.3162C135.444 31.3162 133.969 30.8013 132.887 29.7715C131.822 28.7242 131.29 27.1795 131.29 25.1373V17.1519H134.563V24.6922C134.563 25.949 134.842 26.8915 135.4 27.5199C135.976 28.1308 136.788 28.4362 137.835 28.4362C139.005 28.4362 139.93 28.0784 140.611 27.3628C141.309 26.6297 141.658 25.5824 141.658 24.221V17.1519H144.931Z" fill="white"/>
<path d="M152.331 19.1941C153.274 17.7279 154.932 16.9948 157.306 16.9948V20.1104C157.026 20.0581 156.773 20.0319 156.546 20.0319C155.272 20.0319 154.277 20.4071 153.562 21.1577C152.846 21.8908 152.488 22.9555 152.488 24.3519V31.133H149.216V17.1519H152.331V19.1941Z" fill="white"/>
<path d="M167.832 16.9948C169.193 16.9948 170.406 17.2915 171.471 17.885C172.553 18.4784 173.4 19.3162 174.011 20.3984C174.622 21.4806 174.927 22.7286 174.927 24.1424C174.927 25.5562 174.622 26.813 174.011 27.9126C173.4 28.9948 172.553 29.8326 171.471 30.4261C170.406 31.0195 169.193 31.3162 167.832 31.3162C166.872 31.3162 165.99 31.1504 165.187 30.8188C164.402 30.4871 163.739 29.9897 163.198 29.3264V31.133H160.082V11.7061H163.355V18.8537C163.913 18.2428 164.568 17.7802 165.318 17.4661C166.086 17.1519 166.924 16.9948 167.832 16.9948ZM167.465 28.5148C168.67 28.5148 169.656 28.1133 170.424 27.3104C171.209 26.5075 171.602 25.4515 171.602 24.1424C171.602 22.8333 171.209 21.7773 170.424 20.9744C169.656 20.1715 168.67 19.7701 167.465 19.7701C166.68 19.7701 165.973 19.9533 165.345 20.3199C164.716 20.669 164.219 21.1751 163.852 21.8384C163.486 22.5017 163.302 23.2697 163.302 24.1424C163.302 25.0151 163.486 25.7831 163.852 26.4464C164.219 27.1097 164.716 27.6246 165.345 27.9911C165.973 28.3402 166.68 28.5148 167.465 28.5148Z" fill="white"/>
</g>
<defs>
<clipPath id="clip0_400_2792">
<rect width="48" height="43.6364" fill="white" transform="translate(0.519531 0.0419922)"/>
</clipPath>
</defs>
</svg>
