<svg width="56" height="56" viewBox="0 0 56 56" fill="none" xmlns="http://www.w3.org/2000/svg">
<circle cx="28" cy="28" r="27.5" stroke="white" stroke-opacity="0.1"/>
<path d="M33.92 27.6202C33.8724 27.4974 33.801 27.3853 33.71 27.2902L28.71 22.2902C28.6168 22.1969 28.5061 22.123 28.3842 22.0725C28.2624 22.0221 28.1319 21.9961 28 21.9961C27.7337 21.9961 27.4783 22.1019 27.29 22.2902C27.1968 22.3834 27.1228 22.4941 27.0723 22.6159C27.0219 22.7378 26.9959 22.8683 26.9959 23.0002C26.9959 23.2665 27.1017 23.5219 27.29 23.7102L30.59 27.0002H23C22.7348 27.0002 22.4804 27.1055 22.2929 27.2931C22.1054 27.4806 22 27.735 22 28.0002C22 28.2654 22.1054 28.5198 22.2929 28.7073C22.4804 28.8948 22.7348 29.0002 23 29.0002H30.59L27.29 32.2902C27.1963 32.3831 27.1219 32.4937 27.0711 32.6156C27.0203 32.7375 26.9942 32.8682 26.9942 33.0002C26.9942 33.1322 27.0203 33.2629 27.0711 33.3848C27.1219 33.5066 27.1963 33.6172 27.29 33.7102C27.383 33.8039 27.4936 33.8783 27.6154 33.9291C27.7373 33.9798 27.868 34.006 28 34.006C28.132 34.006 28.2627 33.9798 28.3846 33.9291C28.5064 33.8783 28.617 33.8039 28.71 33.7102L33.71 28.7102C33.801 28.6151 33.8724 28.5029 33.92 28.3802C34.02 28.1367 34.02 27.8636 33.92 27.6202Z" fill="white"/>
</svg>
