<svg width="164" height="47" viewBox="0 0 164 47" fill="none" xmlns="http://www.w3.org/2000/svg">
<g opacity="0.3">
<path d="M53.1198 14.5902C53.1198 22.4448 61.5634 23.5051 61.5634 29.1604C61.5634 31.124 60.6994 31.8309 59.3249 31.8309C57.9503 31.8309 57.0863 31.124 57.0863 29.1604V27.1968H53.002V28.8855C53.002 33.284 55.2012 35.7975 59.4427 35.7975C63.6841 35.7975 65.8834 33.284 65.8834 28.8855C65.8834 21.031 57.4398 19.9706 57.4398 14.3153C57.4398 12.3517 58.2252 11.6055 59.5998 11.6055C60.9743 11.6055 61.7598 12.3517 61.7598 14.3153V15.4542H65.8441V14.5902C65.8441 10.1917 63.6841 7.67822 59.482 7.67822C55.2798 7.67822 53.1198 10.1917 53.1198 14.5902Z" fill="white"/>
<path d="M72.1351 35.4833H76.4551V26.372L81.914 7.9924H77.7904L74.4915 20.5204L71.1926 7.9924H66.6762L72.1351 26.372V35.4833Z" fill="white"/>
<path d="M89.6305 7.9924H83.6218V35.4833H87.392V16.0433L90.6123 35.4833H94.6967L97.6814 15.7684V35.4833H101.766V7.9924H95.7571L92.8116 27.511L89.6305 7.9924Z" fill="white"/>
<path d="M103.652 11.9197H108.168V35.4833H112.488V11.9197H117.004V7.9924H103.652V11.9197Z" fill="white"/>
<path d="M132.338 35.4833C131.906 34.4622 131.867 33.4804 131.867 32.1451V27.9037C131.867 25.0368 131.16 22.9553 129 22.052C130.924 21.1488 131.828 19.3029 131.828 16.4753V14.3153C131.828 10.0739 129.903 7.9924 125.426 7.9924H118.907V35.4833H123.227V24.2906H124.719C126.683 24.2906 127.547 25.2331 127.547 27.7859V32.1059C127.547 34.3444 127.704 34.7764 127.94 35.4833H132.338ZM125.308 11.9197C126.84 11.9197 127.508 12.7837 127.508 14.7473V17.4571C127.508 19.6564 126.526 20.3633 124.916 20.3633H123.227V11.9197H125.308Z" fill="white"/>
<path d="M134.708 35.4833H139.028V7.9924H134.708V35.4833Z" fill="white"/>
<path d="M150.63 25.2331V29.1604C150.63 31.124 149.766 31.8309 148.392 31.8309C147.017 31.8309 146.153 31.124 146.153 29.1604V14.3153C146.153 12.3517 147.017 11.6055 148.392 11.6055C149.766 11.6055 150.63 12.3517 150.63 14.3153V17.2608H154.715V14.5902C154.715 10.1917 152.515 7.67822 148.274 7.67822C144.032 7.67822 141.833 10.1917 141.833 14.5902V28.8855C141.833 33.284 144.032 35.7975 148.274 35.7975C152.515 35.7975 154.715 33.284 154.715 28.8855V25.2331H150.63Z" fill="white"/>
<g clip-path="url(#clip0_400_2788)">
<path fill-rule="evenodd" clip-rule="evenodd" d="M15.4822 13.8769L13.1216 17.9581L10.8754 14.0619L13.2243 9.98072H29.6313L33.1149 3.93823H9.73765L5.13092 11.9288C8.58672 17.8989 12.0372 23.869 15.4822 29.8391H22.4496C20.6996 26.81 18.9507 23.7814 17.2027 20.7533L16.7183 19.915H32.6863L39.5538 31.8062L32.6863 43.6784H7.49156L0.694512 31.6918L4.10773 25.7637L6.36852 29.6585L5.14562 31.7916L9.75235 39.7822H30.4269L35.0484 31.7916L30.4416 23.801H23.4743C24.9521 26.375 26.4309 28.9484 27.9107 31.5214L28.078 31.7872L26.955 33.7353H13.236C9.0834 26.5545 4.93616 19.3792 0.794294 12.2092L0.638672 11.9244L7.49156 0.0332031H39.8797L31.895 13.8769H15.4822Z" fill="white"/>
</g>
</g>
<defs>
<clipPath id="clip0_400_2788">
<rect width="39.2425" height="43.6364" fill="white" transform="translate(0.638672 0.0419922)"/>
</clipPath>
</defs>
</svg>
