<svg width="48" height="48" viewBox="0 0 48 48" fill="none" xmlns="http://www.w3.org/2000/svg">
<circle opacity="0.6" cx="24" cy="24" r="23.5" stroke="white"/>
<path d="M24.8935 17.1223L30.6655 22.8943C30.7538 22.9826 30.8035 23.1024 30.8035 23.2272C30.8034 23.3522 30.7538 23.472 30.6656 23.5602C30.5772 23.6486 30.4574 23.6981 30.3325 23.6982C30.2076 23.6982 30.0879 23.6486 29.9995 23.5602L25.0323 18.593L25.0267 31.6632C25.0267 31.7868 24.9776 31.9054 24.8902 31.9928C24.8027 32.0803 24.6842 32.1294 24.5605 32.1294C24.4369 32.1294 24.3184 32.0803 24.2309 31.9929C24.1434 31.9054 24.0943 31.7868 24.0944 31.6632L24.0888 18.5931L19.1216 23.5603C19.0333 23.6486 18.9135 23.6982 18.7886 23.6982C18.6637 23.6982 18.5439 23.6486 18.4556 23.5603C18.3673 23.4719 18.3177 23.3522 18.3177 23.2273C18.3177 23.1024 18.3673 22.9826 18.4556 22.8943L24.2276 17.1223C24.3158 17.034 24.4356 16.9844 24.5606 16.9843C24.6855 16.9844 24.8052 17.034 24.8935 17.1223Z" fill="white"/>
</svg>
