<svg width="21" height="21" viewBox="0 0 21 21" fill="none" xmlns="http://www.w3.org/2000/svg">
<path d="M10.8935 3.12233L16.6655 8.89429C16.7538 8.98262 16.8035 9.10236 16.8035 9.22723C16.8034 9.35218 16.7538 9.472 16.6656 9.56025C16.5772 9.64857 16.4574 9.69814 16.3325 9.69822C16.2076 9.69822 16.0879 9.64857 15.9995 9.56025L11.0323 4.59303L11.0267 17.6632C11.0267 17.7868 10.9776 17.9054 10.8902 17.9928C10.8027 18.0803 10.6842 18.1294 10.5605 18.1294C10.4369 18.1294 10.3184 18.0803 10.2309 17.9929C10.1434 17.9054 10.0943 17.7868 10.0944 17.6632L10.0888 4.59307L5.12159 9.56027C5.03328 9.64858 4.91349 9.6982 4.78859 9.6982C4.66369 9.69819 4.54391 9.64858 4.45559 9.56026C4.36727 9.47195 4.31766 9.35217 4.31766 9.22727C4.31766 9.10237 4.36728 8.98259 4.45558 8.89427L10.2276 3.12226C10.3158 3.03403 10.4356 2.98441 10.5606 2.98435C10.6855 2.98436 10.8052 3.03401 10.8935 3.12233Z" fill="white"/>
</svg>
