<svg width="36" height="36" viewBox="0 0 36 36" fill="none" xmlns="http://www.w3.org/2000/svg">
<rect width="36" height="36" rx="4" fill="#17222F"/>
<path d="M22.6469 20.0123C22.4469 19.9123 21.1469 19.3123 20.9469 19.2123C20.7469 19.1123 20.5469 19.1123 20.3469 19.3123C20.1469 19.5123 19.7469 20.1123 19.5469 20.3123C19.4469 20.5123 19.2469 20.5123 19.0469 20.4123C18.3469 20.1123 17.6469 19.7123 17.0469 19.2123C16.5469 18.7123 16.0469 18.1123 15.6469 17.5123C15.5469 17.3123 15.6469 17.1123 15.7469 17.0123C15.8469 16.9123 15.9469 16.7123 16.1469 16.6123C16.2469 16.5123 16.3469 16.3123 16.3469 16.2123C16.4469 16.1123 16.4469 15.9123 16.3469 15.8123C16.2469 15.7123 15.7469 14.5123 15.5469 14.0123C15.4469 13.3123 15.2469 13.3123 15.0469 13.3123H14.5469C14.3469 13.3123 14.0469 13.5123 13.9469 13.6123C13.3469 14.2123 13.0469 14.9123 13.0469 15.7123C13.1469 16.6123 13.4469 17.5123 14.0469 18.3123C15.1469 19.9123 16.5469 21.2123 18.2469 22.0123C18.7469 22.2123 19.1469 22.4123 19.6469 22.5123C20.1469 22.7123 20.6469 22.7123 21.2469 22.6123C21.9469 22.5123 22.5469 22.0123 22.9469 21.4123C23.1469 21.0123 23.1469 20.6123 23.0469 20.2123L22.6469 20.0123ZM25.1469 10.9123C21.2469 7.0123 14.9469 7.0123 11.0469 10.9123C7.84687 14.1123 7.24688 19.0123 9.44688 22.9123L8.04688 28.0123L13.3469 26.6123C14.8469 27.4123 16.4469 27.8123 18.0469 27.8123C23.5469 27.8123 27.9469 23.4123 27.9469 17.9123C28.0469 15.3123 26.9469 12.8123 25.1469 10.9123ZM22.4469 24.9123C21.1469 25.7123 19.6469 26.2123 18.0469 26.2123C16.5469 26.2123 15.1469 25.8123 13.8469 25.1123L13.5469 24.9123L10.4469 25.7123L11.2469 22.7123L11.0469 22.4123C8.64687 18.4123 9.84687 13.4123 13.7469 10.9123C17.6469 8.4123 22.6469 9.7123 25.0469 13.5123C27.4469 17.4123 26.3469 22.5123 22.4469 24.9123Z" fill="white"/>
</svg>
