<svg width="195" height="52" viewBox="0 0 195 52" fill="none" xmlns="http://www.w3.org/2000/svg">
<g opacity="0.3">
<g clip-path="url(#clip0_400_2796)">
<path fill-rule="evenodd" clip-rule="evenodd" d="M27.4668 48.0084C32.6617 47.4019 37.4999 45.0599 41.1981 41.3617C44.8964 37.6634 47.2383 32.8252 47.8448 27.6304H39.1141C38.5634 30.5134 37.1581 33.1642 35.0809 35.238C33.0037 37.3118 30.3507 38.7127 27.4668 39.2587V48.0084Z" fill="white"/>
<path fill-rule="evenodd" clip-rule="evenodd" d="M35.2216 4.16893L35.2766 4.13296C40.926 0.886874 45.494 -0.0676695 47.6208 2.06103C53.6376 8.07595 36.6704 26.7855 31.6441 31.8118C28.6214 34.8434 25.4181 37.6894 22.0517 40.3342V48.0024C19.3452 47.6952 16.7155 46.9062 14.2868 45.673L14.2319 45.7089C8.58252 48.955 4.01647 49.9095 1.88777 47.7922C-1.02879 44.8756 2.38389 38.1619 3.99746 35.3912C2.77183 32.9594 1.98338 30.3311 1.66805 27.6263H10.4176C10.8003 29.6571 11.6096 31.5835 12.7921 33.2783C13.9746 34.973 15.5033 36.3974 17.2773 37.4574C16.2678 38.1903 15.2413 38.8873 14.177 39.5406C12.6183 40.5311 11.0048 41.4667 9.33441 42.3095C8.02712 41.1518 6.85783 39.8471 5.84972 38.4213C4.08842 41.8151 3.50133 44.3094 4.4369 45.2393C8.45379 49.2164 26.5212 32.6205 29.4927 29.649C32.6563 26.4896 35.6154 23.1319 38.3521 19.5963C37.4503 17.2916 35.9772 15.2542 34.0713 13.6755C32.1653 12.0969 29.8891 11.0289 27.4568 10.5721V1.82241C30.1638 2.12697 32.794 2.91603 35.2216 4.15187V4.16893ZM43.6588 11.4149C45.4201 8.02105 46.0071 5.52683 45.0716 4.59695C44.136 3.66706 41.6627 4.26742 38.267 6.02872C40.3545 7.5102 42.1773 9.33302 43.6588 11.4205V11.4149Z" fill="white"/>
<path fill-rule="evenodd" clip-rule="evenodd" d="M22.0557 1.83936C16.8607 2.44626 12.0225 4.78857 8.32429 8.48716C4.62605 12.1858 2.28415 17.0242 1.67773 22.2193H10.4274C10.9707 19.3359 12.371 16.6834 14.4456 14.6085C16.5202 12.5336 19.1724 11.1327 22.0557 10.589V1.83936Z" fill="white"/>
</g>
<path d="M88.3715 30.4794C88.3715 31.4908 88.1783 32.4454 87.7919 33.3431C87.4169 34.2294 86.8942 35.0079 86.2237 35.6783C85.5646 36.3374 84.7862 36.8601 83.8885 37.2465C83.0021 37.6215 82.0533 37.809 81.0419 37.809C80.1328 37.809 79.2578 37.6499 78.4169 37.3317C77.5874 37.0135 76.8374 36.5476 76.1669 35.934C75.4964 36.5476 74.7408 37.0135 73.8999 37.3317C73.0589 37.6499 72.1839 37.809 71.2749 37.809C70.2635 37.809 69.3089 37.6215 68.4112 37.2465C67.5249 36.8601 66.7464 36.3374 66.076 35.6783C65.4169 35.0079 64.8942 34.2294 64.5078 33.3431C64.1328 32.4454 63.9453 31.4908 63.9453 30.4794V13.0249H68.8374V30.4794C68.8374 30.8204 68.8999 31.1442 69.0249 31.451C69.1499 31.7465 69.3203 32.0079 69.5362 32.2351C69.7635 32.451 70.0249 32.6215 70.3203 32.7465C70.6158 32.8715 70.9339 32.934 71.2749 32.934C71.6158 32.934 71.9339 32.8715 72.2294 32.7465C72.5249 32.6215 72.7805 32.451 72.9964 32.2351C73.2237 32.0079 73.3999 31.7465 73.5249 31.451C73.6499 31.1442 73.7124 30.8204 73.7124 30.4794V13.0249H78.6044V30.4794C78.6044 30.8204 78.6669 31.1442 78.7919 31.451C78.9169 31.7465 79.0874 32.0079 79.3033 32.2351C79.5305 32.451 79.7919 32.6215 80.0874 32.7465C80.3828 32.8715 80.701 32.934 81.0419 32.934C81.3828 32.934 81.701 32.8715 81.9964 32.7465C82.2919 32.6215 82.5476 32.451 82.7635 32.2351C82.9908 32.0079 83.1669 31.7465 83.2919 31.451C83.4283 31.1442 83.4964 30.8204 83.4964 30.4794V13.0249H88.3715V30.4794Z" fill="white"/>
<path d="M97.7464 14.2522C97.7464 14.684 97.6612 15.0874 97.4908 15.4624C97.3317 15.8374 97.1101 16.1669 96.826 16.451C96.5419 16.7238 96.2067 16.9454 95.8203 17.1158C95.4453 17.2749 95.0419 17.3544 94.6101 17.3544C94.1783 17.3544 93.7692 17.2749 93.3828 17.1158C93.0078 16.9454 92.6783 16.7238 92.3942 16.451C92.1215 16.1669 91.8999 15.8374 91.7294 15.4624C91.5703 15.0874 91.4908 14.684 91.4908 14.2522C91.4908 13.8317 91.5703 13.434 91.7294 13.059C91.8999 12.6726 92.1215 12.3431 92.3942 12.0704C92.6783 11.7863 93.0078 11.5647 93.3828 11.4056C93.7692 11.2351 94.1783 11.1499 94.6101 11.1499C95.0419 11.1499 95.4453 11.2351 95.8203 11.4056C96.2067 11.5647 96.5419 11.7863 96.826 12.0704C97.1101 12.3431 97.3317 12.6726 97.4908 13.059C97.6612 13.434 97.7464 13.8317 97.7464 14.2522ZM96.9453 37.4681H92.2578V19.2124H96.9453V37.4681Z" fill="white"/>
<path d="M110.531 37.4681H99.8942V32.8317H110.531C110.849 32.8317 111.121 32.7181 111.349 32.4908C111.576 32.2635 111.69 31.9908 111.69 31.6726C111.69 31.3431 111.576 31.1272 111.349 31.0249C111.121 30.9226 110.849 30.8715 110.531 30.8715H105.69C104.883 30.8715 104.127 30.7181 103.423 30.4113C102.718 30.1044 102.104 29.6897 101.582 29.1669C101.059 28.6329 100.644 28.0135 100.337 27.309C100.042 26.6044 99.8942 25.8488 99.8942 25.0419C99.8942 24.2351 100.042 23.4794 100.337 22.7749C100.644 22.0704 101.059 21.4567 101.582 20.934C102.104 20.4113 102.718 20.0022 103.423 19.7067C104.127 19.3999 104.883 19.2465 105.69 19.2465H115.116V23.8829H105.69C105.371 23.8829 105.099 23.9965 104.871 24.2238C104.644 24.451 104.531 24.7238 104.531 25.0419C104.531 25.3715 104.644 25.6556 104.871 25.8942C105.099 26.1215 105.371 26.2351 105.69 26.2351H110.531C111.326 26.2351 112.076 26.3715 112.781 26.6442C113.485 26.9056 114.099 27.2749 114.621 27.7522C115.144 28.2294 115.559 28.8033 115.866 29.4738C116.173 30.1442 116.326 30.8772 116.326 31.6726C116.326 32.4794 116.173 33.2351 115.866 33.9397C115.559 34.6329 115.144 35.2465 114.621 35.7806C114.099 36.3033 113.485 36.7181 112.781 37.0249C112.076 37.3204 111.326 37.4681 110.531 37.4681Z" fill="white"/>
<path d="M123.468 37.4681H118.815V11.951H123.468V20.0135C124.025 19.5931 124.599 19.2976 125.19 19.1272C125.781 18.9454 126.383 18.8544 126.996 18.8544C128.121 18.8544 129.178 19.0704 130.167 19.5022C131.156 19.9226 132.013 20.5079 132.741 21.2579C133.479 21.9965 134.059 22.8658 134.479 23.8658C134.911 24.8544 135.127 25.9113 135.127 27.0363V37.4681H130.44V27.0363H130.474C130.474 26.559 130.383 26.1101 130.201 25.6897C130.019 25.2579 129.769 24.8829 129.451 24.5647C129.133 24.2465 128.763 23.9965 128.343 23.8147C127.923 23.6329 127.474 23.5419 126.996 23.5419C126.508 23.5419 126.048 23.6329 125.616 23.8147C125.184 23.9965 124.809 24.2465 124.491 24.5647C124.173 24.8829 123.923 25.2579 123.741 25.6897C123.559 26.1101 123.468 26.559 123.468 27.0363V37.4681Z" fill="white"/>
<path d="M145.712 33.0022C145.894 33.059 146.076 33.0988 146.258 33.1215C146.44 33.1329 146.621 33.1385 146.803 33.1385C147.258 33.1385 147.695 33.076 148.116 32.951C148.536 32.826 148.928 32.6499 149.292 32.4226C149.667 32.184 149.996 31.8999 150.281 31.5704C150.576 31.2294 150.815 30.8544 150.996 30.4454L154.406 33.8715C153.974 34.4851 153.474 35.0363 152.906 35.5249C152.349 36.0135 151.741 36.4283 151.082 36.7692C150.434 37.1101 149.746 37.3658 149.019 37.5363C148.303 37.7181 147.565 37.809 146.803 37.809C145.519 37.809 144.309 37.5704 143.173 37.0931C142.048 36.6158 141.059 35.951 140.207 35.0988C139.366 34.2465 138.701 33.2351 138.212 32.0647C137.724 30.8829 137.479 29.5874 137.479 28.1783C137.479 26.7351 137.724 25.4169 138.212 24.2238C138.701 23.0306 139.366 22.0135 140.207 21.1726C141.059 20.3317 142.048 19.6783 143.173 19.2124C144.309 18.7465 145.519 18.5135 146.803 18.5135C147.565 18.5135 148.309 18.6044 149.036 18.7863C149.763 18.9681 150.451 19.2294 151.099 19.5704C151.758 19.9113 152.371 20.3317 152.94 20.8317C153.508 21.3204 154.008 21.8715 154.44 22.4851L145.712 33.0022ZM148.099 23.4056C147.883 23.326 147.667 23.2749 147.451 23.2522C147.246 23.2294 147.031 23.2181 146.803 23.2181C146.167 23.2181 145.565 23.3374 144.996 23.576C144.44 23.8033 143.951 24.1329 143.531 24.5647C143.121 24.9965 142.798 25.5192 142.559 26.1329C142.32 26.7351 142.201 27.4169 142.201 28.1783C142.201 28.3488 142.207 28.5419 142.218 28.7579C142.241 28.9738 142.269 29.1954 142.303 29.4226C142.349 29.6385 142.4 29.8488 142.457 30.0533C142.513 30.2579 142.587 30.4397 142.678 30.5988L148.099 23.4056Z" fill="white"/>
<path d="M161.479 37.4681H156.792V11.951H161.479V37.4681Z" fill="white"/>
<path d="M169.729 44.4226H165.042V19.2124H166.167L168.025 21.4113C168.445 21.0135 168.906 20.6385 169.406 20.2863C169.906 19.934 170.423 19.6329 170.957 19.3829C171.502 19.1215 172.065 18.9169 172.644 18.7692C173.224 18.6215 173.809 18.5476 174.4 18.5476C175.684 18.5476 176.888 18.7806 178.013 19.2465C179.15 19.701 180.138 20.3488 180.979 21.1897C181.832 22.0306 182.502 23.0476 182.991 24.2408C183.479 25.4226 183.724 26.7351 183.724 28.1783C183.724 29.6783 183.479 31.0306 182.991 32.2351C182.502 33.4283 181.832 34.4454 180.979 35.2863C180.138 36.1158 179.15 36.7522 178.013 37.1954C176.888 37.6385 175.684 37.8601 174.4 37.8601C173.991 37.8601 173.582 37.8147 173.173 37.7238C172.775 37.6329 172.377 37.5135 171.979 37.3658C171.593 37.2067 171.207 37.0306 170.82 36.8374C170.445 36.6442 170.082 36.4454 169.729 36.2408V44.4226ZM179.053 28.1783C179.053 27.4056 178.928 26.7124 178.678 26.0988C178.44 25.4851 178.11 24.9681 177.69 24.5476C177.269 24.1158 176.775 23.7863 176.207 23.559C175.638 23.3317 175.036 23.2181 174.4 23.2181C173.763 23.2181 173.161 23.3317 172.593 23.559C172.036 23.7863 171.548 24.1158 171.127 24.5476C170.707 24.9681 170.371 25.4851 170.121 26.0988C169.883 26.7124 169.763 27.4056 169.763 28.1783C169.763 28.9169 169.883 29.5931 170.121 30.2067C170.371 30.8204 170.707 31.3431 171.127 31.7749C171.548 32.2067 172.036 32.5419 172.593 32.7806C173.161 33.0192 173.763 33.1385 174.4 33.1385C175.036 33.1385 175.638 33.0192 176.207 32.7806C176.775 32.5419 177.269 32.2067 177.69 31.7749C178.11 31.3431 178.44 30.8204 178.678 30.2067C178.928 29.5931 179.053 28.9169 179.053 28.1783Z" fill="white"/>
</g>
<defs>
<clipPath id="clip0_400_2796">
<rect width="48.142" height="48" fill="white" transform="translate(0.757812 0.922852)"/>
</clipPath>
</defs>
</svg>
